<?xml version="1.0" encoding="UTF-8" standalone="no"?>
<!-- Created with Inkscape (http://www.inkscape.org/) -->

<svg
   xmlns:dc="http://purl.org/dc/elements/1.1/"
   xmlns:cc="http://creativecommons.org/ns#"
   xmlns:rdf="http://www.w3.org/1999/02/22-rdf-syntax-ns#"
   xmlns:svg="http://www.w3.org/2000/svg"
   xmlns="http://www.w3.org/2000/svg"
   xmlns:sodipodi="http://sodipodi.sourceforge.net/DTD/sodipodi-0.dtd"
   xmlns:inkscape="http://www.inkscape.org/namespaces/inkscape"
   width="210mm"
   height="297mm"
   viewBox="0 0 210 297"
   version="1.1"
   id="svg13688"
   inkscape:version="0.92.4 (5da689c313, 2019-01-14)"
   sodipodi:docname="cape.svg">
  <defs
     id="defs13682" />
  <sodipodi:namedview
     id="base"
     pagecolor="#ffffff"
     bordercolor="#666666"
     borderopacity="1.0"
     inkscape:pageopacity="0.0"
     inkscape:pageshadow="2"
     inkscape:zoom="0.35"
     inkscape:cx="400"
     inkscape:cy="560"
     inkscape:document-units="mm"
     inkscape:current-layer="layer1"
     showgrid="false"
     inkscape:window-width="1366"
     inkscape:window-height="705"
     inkscape:window-x="-8"
     inkscape:window-y="-8"
     inkscape:window-maximized="1" />
  <metadata
     id="metadata13685">
    <rdf:RDF>
      <cc:Work
         rdf:about="">
        <dc:format>image/svg+xml</dc:format>
        <dc:type
           rdf:resource="http://purl.org/dc/dcmitype/StillImage" />
        <dc:title></dc:title>
      </cc:Work>
    </rdf:RDF>
  </metadata>
  <g
     inkscape:groupmode="layer"
     id="cape"
     inkscape:label="Layer 2">
    <path
       inkscape:connector-curvature="0"
       id="rect11116"
       style="fill:#ff0000;fill-opacity:1;fill-rule:evenodd;stroke:none"
       d="m 185.18035,136.14648 c -0.0502,0.007 -0.10019,0.0161 -0.15039,0.0234 -0.9793,0.14236 -1.95841,0.28678 -2.93555,0.44336 -0.88868,0.1591 -1.77856,0.31554 -2.66992,0.45898 -0.84284,0.13471 -1.68835,0.25086 -2.53516,0.35742 -0.79301,0.10637 -1.58658,0.21284 -2.3789,0.32422 -0.35895,0.05 -0.71885,0.0898 -1.07813,0.13477 -0.32441,0.12805 -0.64951,0.25422 -0.97265,0.38672 -0.5885,0.22512 -1.1761,0.45419 -1.76953,0.66601 -0.6684,0.2371 -1.342,0.46188 -2.01368,0.68946 -0.73598,0.25632 -1.47124,0.51333 -2.21875,0.73437 -0.75795,0.22227 -1.52005,0.43407 -2.28711,0.62305 -0.76535,0.18919 -1.5362,0.35481 -2.3164,0.4707 -0.74294,0.11768 -1.48643,0.22918 -2.23437,0.31055 -0.79405,0.0897 -1.59082,0.16265 -2.38867,0.20898 -0.73761,0.0367 -1.47441,0.0708 -2.21289,0.084 -0.67605,0.0154 -1.3531,0.0119 -2.0293,0.006 -0.67091,-0.004 -1.34084,-0.009 -2.01171,-0.0137 -0.67044,-0.005 -1.34136,-0.0107 -2.01171,-0.0176 -0.662,-0.007 -1.32439,-0.0153 -1.98634,-0.0254 -0.62988,-0.01 -1.25887,-0.0195 -1.88866,-0.0332 -0.59873,-0.0132 -1.19832,-0.0273 -1.79688,-0.0469 -0.008,-2.6e-4 -0.0156,2.5e-4 -0.0234,0 -0.33217,0.30702 -0.90031,0.49376 -1.68554,0.40039 -0.20985,-0.025 -0.42003,-0.0376 -0.63087,-0.0508 -0.37601,-0.0222 -0.75248,-0.0361 -1.12891,-0.0488 -0.49855,-0.016 -0.99736,-0.0255 -1.49609,-0.0352 -0.56364,-0.0105 -1.12774,-0.0197 -1.69141,-0.0273 -0.56044,-0.008 -1.12117,-0.0141 -1.68163,-0.0195 -0.57352,-0.006 -1.14717,-0.01 -1.7207,-0.0137 -0.58378,-0.004 -1.16622,-0.007 -1.75,-0.01 -0.62824,-0.003 -1.25653,-0.004 -1.88477,-0.006 -0.62029,-0.002 -1.24103,-0.005 -1.86133,-0.006 -0.31665,-7.3e-4 -0.63451,-6.5e-4 -0.95117,-0.002 -0.10818,-2.2e-4 -0.20598,-0.0102 -0.30469,-0.0195 l -14.42773,1.46875 0.55078,5.40234 c 0.54705,0.0981 1.09401,0.19537 1.64063,0.29688 0.78268,0.14386 1.57261,0.24917 2.36132,0.35351 0.5659,0.0816 1.1359,0.12702 1.70508,0.17969 -0.0805,-0.53056 0.24921,-1.19098 1.16992,-1.6582 0.0242,-0.0123 0.0546,-0.0298 0.0645,-0.0332 0.01,-0.003 -7.1e-4,0.007 -0.0547,0.0469 -0.77802,0.57327 -0.40813,0.76175 0.20898,0.87109 0.26826,-0.37997 0.81238,-0.66992 1.65235,-0.66992 h 1.59179 2.6211 3.5039 c 1.23913,-0.004 2.47798,0.0236 3.7168,0.0469 1.07157,0.019 2.14173,0.0365 3.21289,0.0723 0.98524,0.035 1.97172,0.0708 2.95703,0.10352 0.90853,0.033 1.81614,0.0479 2.72461,0.082 0.93397,0.0396 1.86869,0.0815 2.80274,0.11914 0.80229,0.0326 1.60547,0.0562 2.4082,0.0801 0.15957,-0.0372 0.3192,-0.0739 0.47852,-0.11329 0.46171,-0.11474 0.92788,-0.20996 1.39062,-0.32031 0.47181,-0.11511 0.94813,-0.21166 1.42578,-0.29883 0.49135,-0.0889 0.98505,-0.15729 1.48047,-0.21875 0.49053,-0.0554 0.97995,-0.12571 1.4668,-0.20703 0.50689,-0.0878 1.01564,-0.16151 1.52539,-0.23047 0.51654,-0.0694 1.03586,-0.12488 1.55469,-0.17382 0.57931,-0.0536 1.15946,-0.0916 1.74023,-0.125 0.67844,-0.0352 1.35709,-0.0596 2.03516,-0.10157 0.58894,-0.0445 1.17566,-0.10795 1.76172,-0.17968 1.00947,-0.17964 2.02088,-0.34967 3.02929,-0.53516 0.86446,-0.1634 1.73042,-0.31706 2.59375,-0.48633 0.74087,-0.1466 1.4839,-0.27842 2.22461,-0.42578 0.61701,-0.13632 1.23368,-0.27248 1.84766,-0.42187 0.568,-0.12941 1.13086,-0.28204 1.69726,-0.41797 0.59528,-0.13088 1.19157,-0.26205 1.78516,-0.40039 0.58817,-0.15145 1.17537,-0.30237 1.76172,-0.46094 0.61952,-0.17783 1.24257,-0.34682 1.86133,-0.52734 0.61864,-0.17781 1.24019,-0.34698 1.85156,-0.54883 0.65262,-0.23786 1.31038,-0.45651 1.96875,-0.67774 0.63728,-0.20524 1.27681,-0.40617 1.91602,-0.60547 0.46637,-0.14379 0.92037,-0.3207 1.37304,-0.50195 z" />
    <path
       id="rect12292"
       style="fill:#ff0000;fill-opacity:1;fill-rule:evenodd;stroke:none"
       d="m 200.52344,135.83594 v 0.0684 c 0.26503,0.23784 0.52675,0.47963 0.77734,0.73242 0.4338,0.43653 0.82578,0.91263 1.20508,1.39648 0.39921,0.503 0.76041,1.03322 1.12891,1.5586 0.42956,0.5864 0.82511,1.19662 1.1914,1.82422 0.33474,0.56852 0.66227,1.14166 0.97852,1.7207 0.33146,0.56669 0.62673,1.1522 0.91797,1.74023 0.25222,0.55073 0.53642,1.08512 0.80664,1.62696 0.28135,0.56514 0.57512,1.12484 0.8457,1.69531 0.25802,0.53031 0.53443,1.05102 0.78711,1.58398 0.26138,0.5558 0.50015,1.12186 0.74805,1.6836 0.11676,0.25686 0.21034,0.52268 0.3125,0.78515 0.36481,0.26412 0.71634,0.54718 1.05664,0.84375 0.73962,0.64582 1.41602,1.35695 2.07226,2.08594 0.6853,0.76152 1.33798,1.55175 1.99219,2.33984 0.71818,0.86787 1.40115,1.76372 2.03711,2.69336 0.62112,0.87729 1.19588,1.78391 1.77734,2.6875 0.47069,0.7498 0.95917,1.489 1.46875,2.21289 0.49607,0.70935 1.02008,1.39729 1.53907,2.08985 0.50504,0.65406 1.01668,1.30496 1.52929,1.95312 0.45238,0.59018 0.91147,1.17431 1.39844,1.73633 1.62735,1.87817 1.99243,3.66435 1.59375,4.95703 0.48986,0.81922 0.98813,1.63351 1.45703,2.46485 0.76006,1.3467 1.47861,2.71699 2.20508,4.08203 0.20251,0.38449 0.38559,0.77858 0.58203,1.16601 0.19532,0.3813 0.39933,0.75804 0.5918,1.14063 0.29309,0.54549 0.55178,1.10628 0.80078,1.67187 0.48739,1.04 0.9624,2.0856 1.42969,3.13477 0.43346,1.00347 0.85603,2.01229 1.26171,3.02734 0.42072,1.02439 0.79221,2.06786 1.16211,3.11133 0.45251,1.2563 0.84133,2.53263 1.22071,3.8125 0.29894,1.04729 0.59413,2.09654 0.89062,3.14453 0.24501,0.86603 0.3323,1.64098 0.31641,2.33594 0.0979,0.33627 0.19941,0.67147 0.29101,1.00976 0.21077,0.78408 0.38309,1.57694 0.54102,2.37305 0.15585,0.68754 0.3019,1.37811 0.43555,2.07031 0.14191,0.74221 0.2553,1.48801 0.35937,2.23633 0.10247,0.62458 0.20601,1.25017 0.31836,1.87305 0.12069,0.71234 0.24964,1.42324 0.375,2.13476 0.14241,0.80611 0.25168,1.61593 0.35547,2.42774 0.10338,0.8166 0.18366,1.63736 0.25781,2.45703 0.0804,0.84702 0.0988,1.69876 0.1211,2.54883 0.0184,0.83573 0.0418,1.66988 0.0391,2.50586 -0.0106,0.85457 -0.0286,1.70834 -0.0937,2.56054 -0.0713,0.85171 -0.16753,1.70043 -0.29883,2.54493 -0.15934,0.8822 -0.37593,1.75549 -0.62891,2.61523 -0.22634,0.83069 -0.54101,1.6294 -0.8789,2.41992 -0.34395,0.78522 -0.76016,1.53611 -1.17188,2.28711 -0.38725,0.66983 -0.77148,1.34108 -1.16406,2.00781 -0.15171,0.25686 -0.31372,0.50735 -0.47266,0.75977 -0.15255,0.38514 -0.31598,0.7658 -0.47461,1.14844 0.0219,0.16148 0.045,0.32282 0.0664,0.48437 0.048,0.36337 0.0873,0.72799 0.13086,1.0918 0.0238,-7.8e-4 0.0441,-0.01 0.0684,-0.01 0.59641,0.007 1.30822,0.34112 1.97656,1.13672 0.15429,0.18367 0.3068,0.3684 0.44531,0.56446 0.21953,0.29323 0.44135,0.58437 0.64258,0.89062 0.2263,0.34308 0.43632,0.6974 0.62891,1.06055 0.20632,0.38228 0.40266,0.76936 0.58008,1.16601 0.16269,0.38024 0.32194,0.76318 0.45703,1.1543 0.13686,0.38212 0.26268,0.76783 0.39258,1.15234 0.0692,0.2178 0.14274,0.43391 0.21484,0.65039 0.11765,0.23644 0.23678,0.47198 0.34961,0.71094 0.12486,0.25625 0.25242,0.51116 0.37695,0.76758 0.32231,0.66363 0.41864,1.2469 0.36524,1.72656 0.0634,0.18393 0.12623,0.36803 0.1875,0.55274 0.12929,0.36685 0.25656,0.73494 0.38086,1.10351 0.13957,0.39454 0.27241,0.79243 0.41601,1.18555 0.12942,0.37451 0.27227,0.74257 0.41211,1.11328 0.13841,0.35837 0.26823,0.71992 0.41211,1.07617 0.13214,0.33861 0.27862,0.67248 0.42774,1.00391 0.14803,0.32961 0.2961,0.65771 0.46289,0.97852 0.16354,0.31198 0.34425,0.61528 0.51757,0.92187 0.16869,0.29394 0.35749,0.5755 0.53321,0.86523 0.19211,0.31742 0.40277,0.62165 0.60351,0.9336 0.21828,0.33968 0.45337,0.66783 0.68555,0.99804 0.26468,0.37102 0.53807,0.73533 0.80664,1.10352 0.26917,0.35833 0.54963,0.70925 0.83984,1.05078 0.30952,0.3565 0.63,0.70215 0.96485,1.03516 0.36863,0.37207 0.74547,0.73511 1.13086,1.08984 0.4157,0.39581 0.83967,0.78343 1.26758,1.16602 0.34968,0.3121 0.70543,0.61771 1.06054,0.92383 0.57792,0.28909 1.14831,0.59236 1.70117,0.92773 0.57533,0.35792 1.13908,0.73433 1.67579,1.14844 0.46168,0.36605 0.90486,0.75558 1.31835,1.17578 0.0416,0.0418 0.08,0.0866 0.1211,0.1289 0.32053,0.19439 0.64109,0.38884 0.96094,0.58399 0.20824,0.12962 0.41647,0.25938 0.625,0.38867 0.5487,0.23419 1.08818,0.48873 1.57422,0.83984 0.6077,0.4765 1.13945,1.02523 1.50976,1.71094 0.33245,0.58054 0.62498,1.18171 0.85547,1.81055 0.24383,0.68348 0.4553,1.37977 0.53906,2.10351 0.0723,0.70331 0.0977,1.41288 0.0176,2.11719 -0.0222,0.16602 -0.0701,0.32625 -0.10156,0.49024 0.13247,0.22303 0.23736,0.44769 0.31445,0.67187 0.31472,-0.0743 0.62985,-0.14673 0.94336,-0.22656 1.00591,-0.25255 2.01611,-0.49175 3.02539,-0.73047 0.97159,-0.23048 1.94874,-0.42928 2.92969,-0.61523 0.44151,-0.0781 0.87992,-0.17 1.32031,-0.25196 v -0.75976 c -0.46193,-0.64693 -0.91563,-1.29952 -1.33984,-1.97266 -0.64128,-0.9931 -1.25929,-2.00278 -1.81836,-3.04492 -0.53276,-0.99764 -1.04877,-2.00518 -1.50391,-3.04102 -0.45099,-1.03788 -0.89591,-2.07856 -1.3125,-3.13086 -0.47874,-1.19951 -0.97333,-2.39308 -1.35351,-3.6289 -0.39182,-1.27622 -0.74758,-2.56338 -1.06055,-3.86133 -0.33018,-1.35194 -0.64502,-2.70787 -0.90039,-4.07617 -0.23262,-1.32711 -0.40752,-2.66243 -0.61133,-3.99414 -0.075,-0.47817 -0.15391,-0.95586 -0.23242,-1.4336 -0.153,-0.55785 -0.30044,-1.11662 -0.44141,-1.67773 -0.28968,-1.10851 -0.5132,-2.23135 -0.6875,-3.36328 -0.1775,-1.16606 -0.26861,-2.34179 -0.35156,-3.51758 -10e-4,-0.0202 -0.003,-0.0402 -0.004,-0.0606 -0.14038,-0.75842 -0.28293,-1.51644 -0.42187,-2.27539 -0.26797,-1.3496 -0.57948,-2.69105 -0.84571,-4.04101 -0.26263,-1.31177 -0.56024,-2.61454 -0.86132,-3.91797 -0.30803,-1.36366 -0.64877,-2.72035 -0.93946,-4.08789 -0.25949,-1.18023 -0.51676,-2.36344 -0.91796,-3.50586 -0.14551,-0.42466 -0.30277,-0.84486 -0.45313,-1.26758 -0.2809,-0.55983 -0.56042,-1.1202 -0.83398,-1.68359 -0.71014,-1.47554 -1.44046,-2.94218 -2.1211,-4.43164 -0.74773,-1.63343 -1.45241,-3.28419 -2.12695,-4.94922 -0.65718,-1.611 -1.33138,-3.21497 -1.97852,-4.83008 -0.73193,-1.80029 -1.43063,-3.61388 -2.12304,-5.42969 -0.25235,-0.67332 -0.51209,-1.34405 -0.76954,-2.01562 -0.35831,-0.70818 -0.71048,-1.41946 -1.07421,-2.125 -0.66432,-1.31766 -1.32822,-2.63488 -1.94336,-3.97657 -0.53163,-1.16917 -1.03621,-2.3517 -1.53516,-3.53515 -0.43534,-1.05451 -0.86312,-2.11006 -1.27539,-3.17383 -0.39236,-1.00768 -0.78859,-2.01488 -1.1582,-3.03125 -0.25806,-0.72868 -0.50895,-1.46006 -0.75977,-2.19141 -0.4189,-0.82272 -0.83785,-1.64538 -1.25586,-2.46875 -0.5745,-1.1773 -1.12152,-2.36701 -1.66992,-3.55664 -0.5245,-1.18985 -1.01909,-2.39224 -1.55273,-3.57812 -0.47872,-1.13287 -0.95317,-2.2689 -1.42579,-3.4043 -0.48765,-1.15599 -0.94703,-2.32238 -1.42968,-3.48047 -0.46704,-1.11804 -0.92022,-2.24278 -1.39063,-3.35937 -0.47622,-1.1003 -0.93511,-2.20649 -1.41601,-3.30469 -0.48096,-1.07862 -0.94587,-2.16553 -1.45703,-3.23047 -0.39809,-0.86766 -0.84751,-1.70796 -1.32422,-2.53516 -0.47023,-0.82938 -0.93318,-1.66361 -1.45704,-2.46093 -0.5501,-0.83519 -1.1028,-1.66838 -1.6582,-2.5 -0.46576,-0.67473 -0.92137,-1.35749 -1.44726,-1.98828 -0.52938,-0.64663 -1.09427,-1.26025 -1.66407,-1.8711 -0.57017,-0.58925 -1.16884,-1.14738 -1.77539,-1.69922 -0.64365,-0.57173 -1.29395,-1.13785 -1.98632,-1.65039 -0.62004,-0.47709 -1.26777,-0.91886 -1.92579,-1.34179 -0.73676,-0.46122 -1.49091,-0.89232 -2.23242,-1.34571 -0.71522,-0.43145 -1.43284,-0.85773 -2.15625,-1.27539 -0.5879,-0.35829 -1.16946,-0.72845 -1.76367,-1.07617 -0.76759,-0.43381 -1.53034,-0.8727 -2.29102,-1.31836 -0.66332,-0.40699 -1.35215,-0.77163 -2.01562,-1.17969 -0.59258,-0.37044 -1.19537,-0.72442 -1.79102,-1.08984 -0.62151,-0.3612 -1.23134,-0.74046 -1.85742,-1.09375 -0.0909,-0.0498 -0.1842,-0.0952 -0.27539,-0.14453 -0.0508,-0.008 -0.10151,-0.0173 -0.15234,-0.0254 z" />
    <path
       id="rect11139"
       style="fill:#ff0000;fill-opacity:1;fill-rule:evenodd;stroke:none;stroke-width:1.4566263"
       d="m 189.61719,135.41406 c -0.47765,0.0883 -0.95506,0.17803 -1.4336,0.26172 -1.05006,0.17413 -2.10116,0.33967 -3.15429,0.49414 -0.9793,0.14236 -1.95841,0.28678 -2.93555,0.44336 -0.88868,0.1591 -1.77856,0.31555 -2.66992,0.45899 -0.84284,0.13471 -1.68835,0.25097 -2.53516,0.35742 -0.79301,0.10637 -1.58658,0.21284 -2.3789,0.32422 -0.35895,0.05 -0.71885,0.0898 -1.07813,0.13476 -0.32441,0.12805 -0.64952,0.25422 -0.97266,0.38672 -0.37149,0.1421 -0.74472,0.28 -1.11718,0.41992 l 0.77929,7.22071 c 0.48934,-0.0283 0.97945,-0.053 1.46875,-0.0742 0.62373,-0.0241 1.24433,-0.0734 1.86719,-0.11328 0.64574,-0.0419 1.29308,-0.0731 1.93945,-0.10352 0.66111,-0.0312 1.3229,-0.0545 1.98438,-0.0762 0.67808,-0.022 1.35493,-0.039 2.0332,-0.0547 0.69094,-0.0159 1.38315,-0.0296 2.07422,-0.041 0.70049,-0.0114 1.40103,-0.0192 2.10156,-0.0273 0.75703,-0.009 1.51443,-0.0157 2.27149,-0.0215 0.42138,-0.003 0.84252,-0.006 1.26367,-0.008 l 19.74023,-2.13476 c -0.20597,-0.45004 -0.40849,-0.90171 -0.62695,-1.3457 -0.0847,-0.16446 -0.17454,-0.32611 -0.25976,-0.49024 -0.0191,-0.0167 -0.0377,-0.0341 -0.0566,-0.0508 -0.51079,-0.44254 -1.02015,-0.88682 -1.52344,-1.33789 -0.48262,-0.42695 -0.96478,-0.85353 -1.4668,-1.25781 -0.48034,-0.38353 -0.96252,-0.76561 -1.46289,-1.12305 -0.45148,-0.32427 -0.89892,-0.65228 -1.36133,-0.96094 -0.0389,-0.0271 -0.0798,-0.0515 -0.11914,-0.0781 -0.3444,-0.20585 -0.68744,-0.41402 -1.03711,-0.61133 -0.0909,-0.0498 -0.1842,-0.0952 -0.27539,-0.14453 -0.30278,-0.0505 -0.60567,-0.1003 -0.9082,-0.15235 -0.67633,-0.0267 -1.35256,-0.0566 -2.0293,-0.0703 -1.04379,-0.024 -2.08722,-0.0516 -3.13086,-0.082 -1.18712,-0.0345 -2.37353,-0.0712 -3.56054,-0.10937 -0.4765,-0.0145 -0.95313,-0.0225 -1.42969,-0.0332 z" />
    <path
       id="rect11143"
       style="fill:#ff0000;fill-opacity:1;fill-rule:evenodd;stroke:none"
       d="m 168.76172,139.60156 c -0.0287,0.01 -0.0573,0.0196 -0.0859,0.0293 -0.73598,0.25632 -1.47124,0.51333 -2.21875,0.73437 -0.75795,0.22227 -1.52005,0.43407 -2.28711,0.62305 -0.53483,0.13221 -1.07372,0.24544 -1.61523,0.3457 v 5.26758 h 1.42773 c 0.0346,-0.004 0.069,-0.01 0.10352,-0.0137 0.68037,-0.0795 1.36262,-0.14479 2.04492,-0.20508 0.67215,-0.0618 1.34704,-0.0956 2.01953,-0.15234 0.61988,-0.0578 1.23899,-0.1159 1.85938,-0.16797 0.59289,-0.0495 1.18557,-0.0908 1.77929,-0.12891 0.59925,-0.0386 1.20086,-0.0658 1.80078,-0.0918 0.62373,-0.0241 1.24433,-0.0734 1.86719,-0.11328 0.64574,-0.0419 1.29308,-0.0731 1.93945,-0.10352 0.66111,-0.0312 1.3229,-0.0545 1.98438,-0.0762 0.67808,-0.022 1.35494,-0.039 2.0332,-0.0547 0.69094,-0.0159 1.38315,-0.0296 2.07422,-0.041 0.70049,-0.0114 1.40103,-0.0192 2.10156,-0.0273 0.75703,-0.009 1.51443,-0.0157 2.27149,-0.0215 0.5894,-0.004 1.17842,-0.007 1.76758,-0.01 0.41648,-0.0343 0.83326,-0.0643 1.25,-0.0977 0.87932,-0.0704 1.75854,-0.13208 2.63867,-0.19141 0.88537,-0.0605 1.77164,-0.10239 2.6582,-0.14063 0.91717,-0.038 1.83646,-0.0712 2.75391,-0.10156 0.9011,-0.0298 1.80185,-0.0515 2.70312,-0.0723 0.85948,-0.0195 1.71858,-0.0369 2.57813,-0.0527 0.8032,-0.0144 1.60689,-0.0258 2.41015,-0.0371 0.22786,-0.003 0.45574,-0.005 0.6836,-0.008 v -3.86133 c -0.30255,-0.26445 -0.60701,-0.52673 -0.90625,-0.79492 -0.1671,-0.14783 -0.33998,-0.28872 -0.50782,-0.43555 z" />
    <path
       id="rect11488"
       style="fill:#ff0000;fill-opacity:1;fill-rule:evenodd;stroke:none;stroke-width:1.04095566"
       d="m 148.55469,143.08398 v 5.81836 c 0.3573,0.01 0.71454,0.0205 1.07226,0.0293 0.041,0.001 0.0821,4.2e-4 0.12305,0.002 0.27227,-0.005 0.54451,-0.0102 0.81641,-0.0137 0.6759,-0.008 1.35142,-0.014 2.02734,-0.0195 0.76811,-0.006 1.53657,-0.0102 2.30469,-0.0137 0.90302,-0.004 1.80596,-0.007 2.70898,-0.01 1.16144,-0.0101 2.32114,0.0134 3.48242,0.0293 0.39312,0.005 0.78646,0.009 1.17969,0.0137 0.51888,-0.005 1.03772,-0.008 1.55664,-0.0117 0.0758,-0.0237 0.14513,-0.0515 0.22266,-0.0742 0.2386,-0.0699 0.2204,-0.0839 0.86914,-0.30468 0.51734,-0.19839 1.05238,-0.3483 1.57812,-0.52149 0.74585,-0.24956 1.51074,-0.43233 2.2793,-0.5957 0.66967,-0.1751 1.34492,-0.32483 2.02344,-0.46094 0.87017,-0.17199 1.74901,-0.29676 2.6289,-0.40625 0.98949,-0.12514 1.98221,-0.21125 2.97852,-0.2539 0.51321,-0.0261 1.02568,-0.0313 1.53906,-0.0254 0.51341,0.006 1.02588,0.0229 1.53907,0.0391 0.931,0.0313 1.86366,0.057 2.79492,0.0801 1.0277,0.0253 2.05416,0.0438 3.08203,0.0605 1.10038,0.0107 2.20036,0.0845 3.29883,0.14453 1.1136,0.0394 2.22223,0.11969 3.32812,0.25586 1.00258,0.12832 2.00442,0.24755 3.00391,0.39844 0.88351,0.13935 1.77031,0.25772 2.6582,0.36524 0.54406,0.0713 1.08514,0.15843 1.625,0.25585 0.0761,0.0135 0.15202,0.0269 0.23633,0.0469 0.43955,0.0819 0.87915,0.16665 1.3164,0.25977 0.91383,0.19407 1.82246,0.4116 2.73047,0.63085 0.88453,0.24273 1.7733,0.46732 2.6543,0.72266 0.51381,0.15051 0.25903,0.0759 0.76563,0.22461 1.32015,0.38742 2.39432,0.9089 3.2539,1.50781 0.33411,0.0647 0.67067,0.11616 1.00391,0.18555 0.27412,0.0533 0.54594,0.11693 0.81836,0.17773 v -8.53711 z" />
    <path
       inkscape:connector-curvature="0"
       id="rect12090"
       style="fill:#ff0000;fill-opacity:1;fill-rule:evenodd;stroke:none"
       d="m 99.639335,133.52929 c -0.0771,0.16493 -0.155367,0.32964 -0.232418,0.49415 -0.0396,0.0856 -0.09143,0.1645 -0.134765,0.24804 -0.105859,0.28875 -0.224336,0.57218 -0.361328,0.84766 -0.178649,0.34564 -0.369934,0.68348 -0.5625,1.02148 -0.176724,0.32071 -0.367888,0.63329 -0.5625,0.94336 -0.200054,0.31167 -0.394763,0.62639 -0.595703,0.9375 -0.238163,0.36148 -0.479497,0.72063 -0.720704,1.08008 -0.2406,0.36944 -0.500503,0.72655 -0.763671,1.08008 -0.222015,0.29802 -0.459399,0.58379 -0.697266,0.86914 0.349769,0.244 0.698525,0.49001 1.056641,0.7207 0.546656,0.35472 1.099511,0.699 1.660156,1.03125 0.553384,0.33057 1.113037,0.65046 1.689453,0.93945 0.64335,0.32778 1.28523,0.65678 1.93359,0.97461 0.64193,0.31474 1.28755,0.6218 1.94531,0.90235 0.7343,0.31118 1.46963,0.6205 2.20313,0.93359 0.65655,0.28446 1.31823,0.55903 1.98437,0.82031 0.71616,0.27992 1.43089,0.56241 2.14649,0.84375 0.61192,0.24473 1.22094,0.49735 1.83593,0.73438 0.57849,0.22925 1.15657,0.4596 1.73242,0.69531 0.0488,0.0196 0.0995,0.0335 0.14844,0.0527 l 3.32813,-3.91602 -2.29297,-1.94922 c -0.18848,-0.0534 -0.37708,-0.10642 -0.5625,-0.16992 -0.28014,-0.0962 -0.55535,-0.20792 -0.83008,-0.31836 -0.27998,-0.11529 -0.55474,-0.23898 -0.82617,-0.37305 -0.26105,-0.13538 -0.52463,-0.26811 -0.7832,-0.4082 -0.23019,-0.1195 -0.45384,-0.24901 -0.68165,-0.37305 -0.22033,-0.12409 -0.43979,-0.24945 -0.6582,-0.37695 -0.21682,-0.13234 -0.42918,-0.27439 -0.63867,-0.41797 -0.19926,-0.14443 -0.39748,-0.28901 -0.59375,-0.4375 -0.18931,-0.14033 -0.37899,-0.27924 -0.57227,-0.41406 -0.2588,-0.17827 -0.51231,-0.36412 -0.76367,-0.55274 -0.25423,-0.19164 -0.51281,-0.37938 -0.76758,-0.57031 -0.2981,-0.22466 -0.59239,-0.4535 -0.88476,-0.68554 -0.37051,-0.30446 -0.73429,-0.61674 -1.09766,-0.92969 -0.42685,-0.36558 -0.85393,-0.73138 -1.28515,-1.0918 -0.46359,-0.38142 -0.93375,-0.75275 -1.39844,-1.13281 -0.46317,-0.37367 -0.92294,-0.75164 -1.375,-1.13867 -0.34638,-0.29824 -0.683895,-0.60609 -1.021485,-0.91407 z" />
    <path
       style="fill:#ffff00;fill-opacity:1;fill-rule:evenodd;stroke:none"
       id="path12088"
       sodipodi:type="arc"
       sodipodi:cx="111.48118"
       sodipodi:cy="146.33936"
       sodipodi:rx="8.4534597"
       sodipodi:ry="8.4534597"
       sodipodi:start="0"
       sodipodi:end="6.2719628"
       d="m 119.93464,146.33936 a 8.4534597,8.4534597 0 0 1 -8.42974,8.45342 8.4534597,8.4534597 0 0 1 -8.47705,-8.40599 8.4534597,8.4534597 0 0 1 8.38218,-8.50059 8.4534597,8.4534597 0 0 1 8.52408,8.35829 l -8.45293,0.0949 z" />
  </g>
  <g id="mark"/>
</svg>
