<?xml version="1.0" encoding="UTF-8" standalone="no"?>
<!-- Created with Inkscape (http://www.inkscape.org/) -->

<svg
   xmlns:dc="http://purl.org/dc/elements/1.1/"
   xmlns:cc="http://creativecommons.org/ns#"
   xmlns:rdf="http://www.w3.org/1999/02/22-rdf-syntax-ns#"
   xmlns:svg="http://www.w3.org/2000/svg"
   xmlns="http://www.w3.org/2000/svg"
   xmlns:sodipodi="http://sodipodi.sourceforge.net/DTD/sodipodi-0.dtd"
   xmlns:inkscape="http://www.inkscape.org/namespaces/inkscape"
   width="210mm"
   height="297mm"
   viewBox="0 0 210 297"
   version="1.1"
   id="svg6370"
   inkscape:version="0.92.4 (5da689c313, 2019-01-14)"
   sodipodi:docname="eyepatch.svg">
  <defs
     id="defs6364" />
  <sodipodi:namedview
     id="base"
     pagecolor="#ffffff"
     bordercolor="#666666"
     borderopacity="1.0"
     inkscape:pageopacity="0.0"
     inkscape:pageshadow="2"
     inkscape:zoom="0.35"
     inkscape:cx="400"
     inkscape:cy="560"
     inkscape:document-units="mm"
     inkscape:current-layer="layer1"
     showgrid="false"
     inkscape:window-width="1366"
     inkscape:window-height="705"
     inkscape:window-x="-8"
     inkscape:window-y="-8"
     inkscape:window-maximized="1" />
  <metadata
     id="metadata6367">
    <rdf:RDF>
      <cc:Work
         rdf:about="">
        <dc:format>image/svg+xml</dc:format>
        <dc:type
           rdf:resource="http://purl.org/dc/dcmitype/StillImage" />
        <dc:title></dc:title>
      </cc:Work>
    </rdf:RDF>
  </metadata>
  <g
     inkscape:groupmode="layer"
     id="eyepatch"
     inkscape:label="Layer 2">
    <path
       id="path1667"
       style="fill:#502d16;stroke-width:1.11189151"
       d="m 153.1582,73.236328 a 15.533031,18.576431 0 0 0 -15.5332,18.578125 15.533031,18.576431 0 0 0 0.72266,5.498047 c 0.11322,0.0064 0.21932,0.02558 0.26367,0.08398 8.9e-4,0.0012 2.5e-4,0.0027 0.002,0.0039 0.0594,0.01967 0.11574,0.05082 0.16992,0.07617 0.0123,0.0058 -0.0439,-0.03032 -0.0312,-0.02539 0.0678,0.02638 0.13391,0.05637 0.20117,0.08398 0.002,0.001 0.005,2.42e-4 0.008,0.002 0.01,0.0066 0.0394,0.02525 0.0293,0.01953 0.0401,0.02571 0.08,0.05221 0.1211,0.07617 0.005,0.0028 -0.01,-0.01785 -0.01,-0.01367 0.0938,0.111938 0.0683,0.07859 0.0586,0.0625 0.0305,0.01515 0.0628,0.02742 0.0937,0.04102 -0.0164,-0.009 -0.0419,-0.02527 -0.0312,-0.01953 0.0493,0.02672 0.0991,0.05336 0.14843,0.08008 -0.004,-0.0041 -0.009,-0.0075 -0.0137,-0.01172 -0.0168,-0.01623 0.0405,0.02315 0.0606,0.03516 -0.001,2.2e-4 -0.003,-2.19e-4 -0.004,0 -0.0143,-0.0078 -0.0287,-0.01568 -0.043,-0.02344 0.0635,0.05988 0.13148,0.114454 0.19727,0.171875 0.002,0.0015 0.004,0.0024 0.006,0.0039 v -0.002 c -0.004,-0.0066 -0.0291,-0.01981 -0.0195,-0.02148 0.01,-0.0017 0.18324,0.135305 0.0605,0.03906 0.11533,0.04537 0.1814,0.0896 0.2168,0.136719 0.0362,0.01693 0.0732,0.03385 0.10938,0.05078 0.0258,0.0091 -0.0556,-0.03615 -0.0273,-0.02734 0.21792,0.0678 0.16344,0.03541 0.26758,0.109375 0.11178,0.04313 -0.0939,-0.05195 -0.0684,-0.04297 0.18839,0.06646 0.22332,0.08582 0.25586,0.126953 0.0584,0.0037 0.19481,0.04859 0.23047,0.08789 0.0171,0.01884 0.0224,0.03019 0.0371,0.04883 0.0256,0.01251 0.058,0.03221 0.0801,0.03906 0.0155,0.0048 0.0329,0.0036 0.0469,0.01172 0.005,0.0027 0.003,0.0032 0.008,0.0059 0.28414,0.01715 0.55065,0.07024 0.70899,0.332032 0.0268,0.0056 0.0533,0.0087 0.0801,0.01367 0.1537,0.02848 0.0789,0.01699 0.28711,0.162109 0.0301,0.04142 0.0691,0.07818 0.125,0.07422 0.004,-3.02e-4 0.004,-0.01012 0.008,-0.0098 0.0441,0.0073 0.0855,0.02032 0.12891,0.03125 0.14857,0.02977 0.24933,0.161665 0.30078,0.294922 0.009,0.02375 -0.0285,-0.04305 -0.0312,-0.06836 -10e-4,-0.0096 0.0173,0.0063 0.0254,0.01172 0.0287,0.01926 0.056,0.04023 0.084,0.06055 0.14639,-0.01834 0.19299,0.214712 0.21875,0.31836 0.003,0.0016 0.007,0.0023 0.01,0.0039 -0.002,-0.0118 -0.003,-0.01251 -0.002,-0.02148 -0.006,-0.01616 -0.0114,-0.03272 -0.0176,-0.04883 0.0292,0.02026 0.0795,0.08061 0.12695,0.126953 0.0566,0.03827 0.10934,0.08167 0.16406,0.123047 0.0277,0.02098 0.0558,0.04163 0.082,0.06445 0.004,0.0036 0.005,0.0066 0.0117,0.01172 0.0118,0.005 0.0231,0.01 0.0352,0.0137 0.0192,0.007 0.15459,0.0526 0.18945,0.0781 0.0816,0.0597 0.12297,0.10843 0.14258,0.13086 3.6e-4,-0.003 0.009,0.005 0.0117,0.004 -0.001,-0.004 5e-4,-0.004 -0.004,-0.0137 0.003,0.005 0.0109,0.012 0.0156,0.0176 0.0207,0.005 0.0452,0.0111 0.0664,0.0195 0.14997,0.0597 0.28637,0.14447 0.42578,0.22461 0.1479,0.0599 0.008,-0.004 0.0117,-0.002 0.0767,0.0311 0.18648,0.0291 0.22656,0.10156 0.008,0.0141 0.0144,0.0285 0.0215,0.043 0.0432,0.0211 0.0867,0.0414 0.13086,0.0605 0.14176,0.0613 0.0726,0.003 0.23633,0.0977 0.14699,0.0843 0.0992,0.13622 0.14258,0.084 0.12065,0.0536 0.12465,0.0618 0.18554,0.12695 0.0431,0.0213 0.0848,0.0532 0.12891,0.0723 0.0268,0.0115 0.0542,0.0165 0.082,0.0254 0.19124,0.0581 0.35963,0.17658 0.5293,0.27929 0.10174,0.0616 0.0839,0.10167 0.0996,0.0586 0.0526,0.047 0.10261,0.0972 0.1582,0.14062 0.0166,0.013 -0.0459,-0.0283 -0.041,-0.0488 0.004,-0.0179 0.0294,0.0252 0.0449,0.0352 0.0201,0.0129 0.0414,0.022 0.0625,0.0332 0.19137,0.10093 0.0525,0.0213 0.25781,0.14649 0.0959,0.009 0.17959,0.0644 0.26562,0.10156 0.0151,0.007 0.0331,0.007 0.0469,0.0156 0.0571,0.0375 0.10943,0.0821 0.16406,0.12304 0.0499,0.0382 0.0854,0.0927 0.13672,0.12891 0.0167,0.0118 0.0392,0.01 0.0586,0.0156 0.0391,0.0129 0.0792,0.0273 0.11719,0.043 0.22359,0.0922 0.0662,0.0401 0.17969,0.0762 -0.0233,-0.006 -0.0463,-0.0163 -0.0703,-0.0195 -0.017,-0.002 -0.0671,-0.001 -0.0508,0.004 0.11172,0.0361 0.22693,0.0576 0.33985,0.0898 0.0313,0.009 0.0463,0.0449 0.0723,0.0645 0.0187,0.0141 0.0404,0.0232 0.0606,0.0351 0.21811,0.0908 0.44893,0.14723 0.66406,0.2461 0.0984,0.0452 0.16177,0.0854 0.25391,0.13867 0.0114,0.003 0.0245,0.004 0.0352,0.008 0.0322,0.0146 0.0616,0.0339 0.0938,0.0488 0.002,0.001 -0.006,-0.007 -0.004,-0.006 0.0329,0.0105 0.0634,0.023 0.0957,0.0352 0.049,0.0176 0.10146,0.0322 0.14844,0.0547 0.0243,0.0116 0.0469,0.0261 0.0703,0.0391 0.0947,0.0299 0.18857,0.0597 0.2832,0.0898 0.083,0.0296 0.16699,0.0553 0.24805,0.0898 0.0398,0.017 0.0762,0.0421 0.11328,0.0645 0.0923,0.0557 0.1994,0.0934 0.27539,0.16992 0.004,0.005 0.009,0.0168 0.0137,0.0234 0.018,0.003 0.0233,-0.001 0.0508,0.008 0.0792,0.0204 0.16037,0.0336 0.23828,0.0586 0.0512,0.0164 0.099,0.0432 0.14844,0.0645 0.22577,0.0969 0.0709,0.0215 0.3164,0.15625 0.20158,0.29914 0.0875,0.12759 0.0469,0.0664 0.0133,0.004 0.0484,0.0124 0.041,0.01 0.0966,0.0285 0.20098,0.0342 0.29492,0.0703 0.0992,0.0382 0.19619,0.10746 0.25391,0.19922 0.008,0.0128 -0.0467,-0.0365 -0.0391,-0.0234 0.01,0.0169 0.0315,0.0232 0.0469,0.0352 0.0127,0.01 0.0175,0.0168 0.0391,0.0293 0.007,0.002 0.0104,0.003 0.0156,0.004 0.001,2.7e-4 0.002,0.0107 0.004,0.0117 0.0372,0.006 0.0741,0.0112 0.11133,0.0176 0.0501,0.0275 0.1025,0.0508 0.15039,0.082 0.1642,0.10698 0.0131,0.0578 0.23242,0.1543 0.10283,0.0453 0.29951,0.0815 0.38086,0.17382 0.0115,0.0131 0.0144,0.0322 0.0234,0.0469 0.076,0.0216 0.18036,0.0595 0.24219,0.082 0.0963,0.028 0.23159,0.0831 0.33203,0.10156 0.20319,0.0375 0.41595,0.0229 0.61328,0.0977 0.0632,0.0843 0.1008,0.11873 0.125,0.14844 0.11851,0.0158 0.21885,0.033 0.36719,0.0703 0.0129,0.003 0.33352,0.0729 0.4043,0.11523 h 0.0664 c 0.0417,0 0.0849,-0.0111 0.125,0 0.0655,0.0182 0.12617,0.0503 0.1875,0.0801 0.01,0.002 0.0213,0.01 0.0312,0.0117 0.18889,-0.019 0.37863,-0.0278 0.56836,-0.0234 0.13017,-0.004 0.18129,0.0215 0.32227,0.0762 0.0174,0.007 0.0312,0.0193 0.0488,0.0254 0.005,0.002 -0.006,-0.005 -0.01,-0.01 0.042,0.0177 0.085,0.0331 0.12696,0.0508 0.099,0.0317 0.19923,0.0947 0.26757,0.17383 0.0118,0.0137 0.0209,0.0299 0.0312,0.0449 0.005,-8e-5 0.008,-7.2e-4 0.0176,0 0.16706,0.0172 0.22313,0.01 0.38672,0.0879 0.034,0.0162 0.062,0.0391 0.0918,0.0625 0.0799,-0.006 0.15797,-0.0151 0.24219,0.0117 0.33096,0.0982 -0.004,0.002 0.14062,0.0644 0.0394,0.0167 0.0789,0.0305 0.11914,0.0449 0.0272,0.002 0.0554,-0.001 0.0801,0.01 0.0284,0.0126 0.0493,0.0378 0.0742,0.0566 0.13947,-0.012 0.32359,-0.0394 0.43359,0.0137 0.018,0.009 0.0308,0.0253 0.0469,0.0371 0.0311,-0.001 0.0628,-0.003 0.0937,-0.002 0.12855,0.005 0.17612,0.0128 0.29492,0.0449 0.0326,0.009 0.0654,0.0213 0.0976,0.0312 0.0386,0.0223 0.0765,0.0444 0.11524,0.0664 0.0129,3.7e-4 0.0235,0.002 0.0664,0.002 0.18699,-0.009 0.38027,-0.0441 0.55078,0.0547 0.036,-0.004 0.0467,-0.008 0.0703,-0.01 0.17792,-0.0147 0.30977,0.0161 0.41015,0.13281 0.0203,2.1e-4 0.0355,-0.004 0.10938,0 0.0395,0.0101 0.0802,0.0172 0.11914,0.0293 0.0206,0.006 0.0616,0.003 0.0606,0.0254 -9.9e-4,0.0203 -0.0803,-0.002 -0.0606,0 0.10372,0.0101 0.2078,0.005 0.30469,0.0527 -0.0846,0.0243 0.021,-0.01 0.1289,0.0254 0.0331,0.0106 0.0616,0.0293 0.0918,0.0469 0.0873,0.003 0.21146,0.007 0.28125,0.0527 0.007,0.005 -0.0341,0.008 -0.0254,0.01 0.21095,0.0431 0.16239,0.0201 0.24609,0.0664 0.11262,-0.002 0.22222,0.0134 0.32032,0.0762 -0.0127,-0.002 -0.0492,-0.01 -0.0371,-0.006 0.0343,0.0119 0.10796,0.0231 0.14453,0.043 0.006,0.003 0.005,0.0171 0.0117,0.0176 0.0402,0.003 0.079,-0.01 0.11914,-0.0117 0.0523,0.005 0.10586,0.0107 0.1582,0.0156 0.029,0.0173 0.057,0.0355 0.0859,0.0527 0.0119,0.002 0.0156,-7.5e-4 0.0234,0 0.0414,0.004 0.0822,0.0102 0.12304,0.0176 0.039,0.007 0.0766,0.0188 0.11524,0.0273 -0.0112,0.003 -0.0448,0.009 -0.0332,0.01 0.19811,0.0184 0.16775,-0.0402 0.36719,0.0996 0.003,0.002 0.008,0.008 0.0117,0.0117 A 15.533031,18.576431 0 0 0 168.69141,91.814453 15.533031,18.576431 0 0 0 153.1582,73.236328 Z m -14.45312,24.425781 c 0.008,0.03435 0.0137,0.06978 0.0273,0.101563 0.008,0.01866 0.019,-0.04407 0.01,-0.06055 -0.0108,-0.01497 -0.0256,-0.02661 -0.0371,-0.04102 z m 1.14648,0.472657 c 0.0198,0.0255 0.0157,0.02338 0.0684,0.08008 0.0155,0.01667 -0.0186,-0.04317 -0.0351,-0.05859 -0.01,-0.0089 -0.0223,-0.01421 -0.0332,-0.02148 z m 0.57032,0.257812 c 0.0207,0.02868 0.0208,0.03097 0.0703,0.08789 0.0163,0.01871 -0.0235,-0.04257 -0.0352,-0.06445 -0.023,-0.01236 -0.0192,-0.01381 -0.0352,-0.02344 z m 3.8164,2.251952 c 0.0237,0.0501 0.0457,0.10043 0.0762,0.14649 0.026,0.0393 -0.0364,-0.0874 -0.0547,-0.13086 -0.007,-0.005 -0.01,-0.008 -0.0215,-0.0156 z m 8.04102,4.04297 c -0.002,-0.001 -0.004,0.005 -0.006,0.008 0.009,0.0231 0.0221,0.0444 0.0332,0.0664 -0.0164,-0.053 -0.0233,-0.0715 -0.0273,-0.0742 z m 3.09179,1.37695 c 0.0152,0.0112 0.0178,0.004 0.0195,0.002 -0.005,-7.8e-4 -0.0157,-5.6e-4 -0.0195,-0.002 z m 2.4375,0.0195 c 0.006,0.005 0.0117,0.009 0.0176,0.0137 0.004,0.003 -0.006,-0.008 -0.01,-0.0117 -0.003,-8.6e-4 -0.005,-5.6e-4 -0.008,-0.002 z m 1.53321,1.30079 c 0.0253,0.0223 0.0503,0.045 0.0762,0.0664 -0.0153,-0.0189 -0.029,-0.04 -0.043,-0.0606 -0.0109,-6.4e-4 -0.0222,-0.005 -0.0332,-0.006 z m -2.24414,1.15234 c -0.004,0.0202 0.005,0.0325 -0.002,0.0547 0.0533,0.007 0.10681,0.0127 0.16016,0.0195 -0.11925,-0.0575 -0.1144,-0.0541 -0.1582,-0.0742 z" />
    <path
       style="fill:#502d16;stroke:none;stroke-width:1.17840159px;stroke-linecap:butt;stroke-linejoin:miter;stroke-opacity:1"
       d="m 111.04084,43.521892 c 8.5168,17.335117 20.79427,32.479266 35.59732,43.203408"
       id="path6352"
       inkscape:connector-curvature="0" />
    <path
       style="fill:#502d16;stroke:none;stroke-width:1.03170764px;stroke-linecap:butt;stroke-linejoin:miter;stroke-opacity:1"
       d="m 158.62484,93.86218 c 4.73054,5.1428 23.67205,7.83798 32.03938,10.3146"
       id="path6356"
       inkscape:connector-curvature="0" />
    <path
       style="fill:#502d16;stroke:none;stroke-width:1px;stroke-linecap:butt;stroke-linejoin:miter;stroke-opacity:1"
       d="m 190.66422,104.17678 c -12.89172,0.001 -28.19236,-8.782312 -32.03938,-10.3146"
       id="path6362"
       inkscape:connector-curvature="0" />
  </g>
  <g id="mark"/>
</svg>
