<?xml version="1.0" encoding="UTF-8" standalone="no"?>
<!-- Created with Inkscape (http://www.inkscape.org/) -->

<svg
   xmlns:dc="http://purl.org/dc/elements/1.1/"
   xmlns:cc="http://creativecommons.org/ns#"
   xmlns:rdf="http://www.w3.org/1999/02/22-rdf-syntax-ns#"
   xmlns:svg="http://www.w3.org/2000/svg"
   xmlns="http://www.w3.org/2000/svg"
   xmlns:sodipodi="http://sodipodi.sourceforge.net/DTD/sodipodi-0.dtd"
   xmlns:inkscape="http://www.inkscape.org/namespaces/inkscape"
   width="210mm"
   height="297mm"
   viewBox="0 0 210 297"
   version="1.1"
   id="svg704"
   inkscape:version="0.92.4 (5da689c313, 2019-01-14)"
   sodipodi:docname="helmet1.svg">
  <defs
     id="defs698" />
  <sodipodi:namedview
     id="base"
     pagecolor="#ffffff"
     bordercolor="#666666"
     borderopacity="1.0"
     inkscape:pageopacity="0.0"
     inkscape:pageshadow="2"
     inkscape:zoom="0.35"
     inkscape:cx="400"
     inkscape:cy="560"
     inkscape:document-units="mm"
     inkscape:current-layer="layer1"
     showgrid="false"
     inkscape:window-width="1366"
     inkscape:window-height="705"
     inkscape:window-x="-8"
     inkscape:window-y="-8"
     inkscape:window-maximized="1" />
  <metadata
     id="metadata701">
    <rdf:RDF>
      <cc:Work
         rdf:about="">
        <dc:format>image/svg+xml</dc:format>
        <dc:type
           rdf:resource="http://purl.org/dc/dcmitype/StillImage" />
        <dc:title></dc:title>
      </cc:Work>
    </rdf:RDF>
  </metadata>
  <g
     inkscape:groupmode="layer"
     id="helmet1"
     inkscape:label="Layer 2">
    <path
       style="fill:#242424;stroke:none;stroke-width:0.58766031"
       d="m 144.81862,16.991 c 14.88127,-0.340796 26.43753,1.002543 35.608,11.515027 7.26333,8.326247 9.92064,17.006806 10.4521,24.270129 0.53146,7.263323 -1.01157,11.48645 1.77154,16.121039 2.99714,4.990993 6.90902,12.223645 8.50341,13.995182 1.59438,1.771543 0.17715,3.18878 -2.30301,3.897399 -2.48015,0.708612 -27.1046,2.834467 -34.89939,3.54308 -7.79478,0.708618 -14.34949,0.531468 -17.71542,0.708618 -3.36593,0.177156 -10.4521,-1.417231 -14.17234,-4.428855 -3.72024,-3.011623 -7.08617,-4.428854 -7.97194,-4.783166 -0.88577,-0.354307 -3.18877,-0.885769 -6.2004,-0.885769 -3.01162,0 -20.54989,0.354306 -23.207202,0.354306 -2.657318,0 -6.55471,-1.948693 -5.491785,-5.668935 1.062924,-3.720237 4.606011,-1.417237 4.783167,-4.960317 0.177156,-3.543086 -1.247162,-20.807877 3.36593,-29.761916 4.61309,-8.954038 12.98351,-17.008933 22.67574,-20.372736 9.69222,-3.363808 16.47565,-3.352414 24.8016,-3.543086 z"
       id="path7693"
       inkscape:connector-curvature="0"
       sodipodi:nodetypes="ssssssssssssssczs" />
  </g>
  <g id="mark"/>
</svg>
