<?xml version="1.0" encoding="UTF-8" standalone="no"?>
<!-- Created with Inkscape (http://www.inkscape.org/) -->

<svg
   xmlns:dc="http://purl.org/dc/elements/1.1/"
   xmlns:cc="http://creativecommons.org/ns#"
   xmlns:rdf="http://www.w3.org/1999/02/22-rdf-syntax-ns#"
   xmlns:svg="http://www.w3.org/2000/svg"
   xmlns="http://www.w3.org/2000/svg"
   xmlns:sodipodi="http://sodipodi.sourceforge.net/DTD/sodipodi-0.dtd"
   xmlns:inkscape="http://www.inkscape.org/namespaces/inkscape"
   width="210mm"
   height="297mm"
   viewBox="0 0 210 297"
   version="1.1"
   id="svg1145"
   inkscape:version="0.92.4 (5da689c313, 2019-01-14)"
   sodipodi:docname="shield.svg">
  <defs
     id="defs1139" />
  <sodipodi:namedview
     id="base"
     pagecolor="#ffffff"
     bordercolor="#666666"
     borderopacity="1.0"
     inkscape:pageopacity="0.0"
     inkscape:pageshadow="2"
     inkscape:zoom="0.35"
     inkscape:cx="400"
     inkscape:cy="560"
     inkscape:document-units="mm"
     inkscape:current-layer="layer1"
     showgrid="false"
     inkscape:window-width="1366"
     inkscape:window-height="705"
     inkscape:window-x="-8"
     inkscape:window-y="-8"
     inkscape:window-maximized="1" />
  <metadata
     id="metadata1142">
    <rdf:RDF>
      <cc:Work
         rdf:about="">
        <dc:format>image/svg+xml</dc:format>
        <dc:type
           rdf:resource="http://purl.org/dc/dcmitype/StillImage" />
        <dc:title></dc:title>
      </cc:Work>
    </rdf:RDF>
  </metadata>
  <g
     inkscape:groupmode="layer"
     id="shield"
     inkscape:label="Layer 2">
    <g
       transform="matrix(0.2819985,0,0,0.2819985,32.541169,165.84225)"
       id="1234">
      <path
         style="fill:#fa963e"
         d="M 226.3068,559.39669 C 84.126226,452.15666 -5.9646276,261.16629 0.46845099,80.625 1.4397367,53.36633 5.293327,7.6461031 7.1257545,1.640625 7.6007201,0.08400373 19.282293,0 235.27134,0 h 227.64499 l 0.54715,3.046875 C 499.38904,203.09995 405.39597,440.13511 242.34375,560.6747 c -3.09375,2.28711 -5.88069,4.50932 -6.1932,4.93824 -0.31252,0.42892 -4.7422,-2.3684 -9.84375,-6.21625 z"
         id="path4627"
         inkscape:connector-curvature="0" />
      <path
         style="fill:#979797"
         d="M 226.3068,559.39669 C 84.126226,452.15666 -5.9646276,261.16629 0.46845099,80.625 1.4397367,53.36633 5.293327,7.6461031 7.1257545,1.640625 7.6007201,0.08400373 19.282293,0 235.27134,0 h 227.64499 l 0.54715,3.046875 C 499.38904,203.09995 405.39597,440.13511 242.34375,560.6747 c -3.09375,2.28711 -5.88069,4.50932 -6.1932,4.93824 -0.31252,0.42892 -4.7422,-2.3684 -9.84375,-6.21625 z M 158.63461,280.1857 c 3.45509,-1.73658 12.96897,-12.63968 18.08355,-20.72408 l 2.59083,-4.09521 6.20488,0.024 c 7.78887,0.0301 10.24996,-1.24761 20.04214,-10.40515 9.46936,-8.85569 20.46082,-13.42276 32.30415,-13.42276 4.34005,0 16.01297,-3.13701 20.84421,-5.60172 2.6919,-1.37331 4.69571,-1.67276 8.57601,-1.28166 4.1754,0.42086 6.92748,-0.0946 15.69284,-2.93929 5.8462,-1.8973 10.75352,-3.31103 10.90513,-3.14161 0.97258,1.08679 -8.95011,19.52678 -10.5075,19.52678 -5.82632,0 -14.20142,8.74919 -9.92976,10.37327 9.94399,3.7807 38.47348,-30.74647 31.32047,-37.90489 -2.42139,-2.42322 -15.81174,-3.29357 -24.88023,-1.61717 -6.76358,1.25032 -6.44664,1.67139 -4.20545,-5.58718 1.62035,-5.24786 1.83286,-8.2489 1.61097,-22.75101 -0.23409,-15.30041 -0.11285,-16.78571 1.44138,-17.65625 0.93334,-0.52279 3.09841,-2.18098 4.81127,-3.68489 1.71285,-1.50391 3.78833,-2.73438 4.61217,-2.73438 2.95017,0 8.60582,-2.98727 10.73147,-5.66828 l 2.16438,-2.72987 -3.10188,-1.90616 c -1.70604,-1.04838 -4.75124,-2.35726 -6.76713,-2.9086 -2.01588,-0.55133 -5.84687,-2.23367 -8.51331,-3.73852 -2.66643,-1.50483 -5.6577,-2.74253 -6.64726,-2.75042 -5.71857,-0.0457 -6.77157,-6.79453 -1.83096,-11.73512 4.16543,-4.16545 3.29673,-6.57672 -1.2126,-3.36581 -4.94261,3.51946 -6.72438,1.71792 -6.72438,-6.79901 0,-2.8394 -0.45863,-5.446 -1.01918,-5.79244 -3.84143,-2.37413 -4.18633,10.49098 -0.49146,18.33173 4.08966,8.67854 1.80924,14.74595 -6.13165,16.3142 -7.47255,1.47575 -7.92331,3.96202 -1.04476,5.76261 2.97797,0.77954 4.34027,1.59238 4.08444,2.43705 -0.21112,0.69706 -1.36815,5.69708 -2.57118,11.11114 -6.01434,27.06677 -10.79107,31.61343 -35.97307,34.24039 -18.93608,1.97539 -27.32502,4.61217 -33.12435,10.4115 -4.95773,4.95773 -6.46321,10.66061 -2.81426,10.66061 1.01141,0 1.11227,0.42353 0.41234,1.73138 -0.50964,0.95225 -1.6212,4.85459 -2.47013,8.67187 -2.06119,9.2682 -3.11626,10.7161 -8.8862,12.1949 -5.38571,1.38032 -5.74565,1.85282 -7.4241,9.7456 -2.45479,11.54355 -7.09905,19.71733 -12.78334,22.4984 -5.09333,2.49193 -9.44399,7.14881 -8.34302,8.93022 0.78861,1.27601 6.49421,0.2227 10.96453,-2.02417 z"
         id="path4625"
         inkscape:connector-curvature="0" />
      <path
         style="fill:#de8d32"
         d="M 226.3068,559.39669 C 84.126226,452.15666 -5.9646276,261.16629 0.46845099,80.625 1.4397367,53.36633 5.293327,7.6461031 7.1257545,1.640625 7.6007201,0.08400373 19.282293,0 235.27134,0 h 227.64499 l 0.54715,3.046875 C 499.38904,203.09995 405.39597,440.13511 242.34375,560.6747 c -3.09375,2.28711 -5.88069,4.50932 -6.1932,4.93824 -0.31252,0.42892 -4.7422,-2.3684 -9.84375,-6.21625 z m 7.49891,-18.69357 c 0.74626,-1.19047 0.74626,-2.09077 0,-3.28125 -2.62843,-4.19297 -8.30011,-0.79485 -5.96276,3.57252 1.22477,2.28851 4.44417,2.13125 5.96276,-0.29127 z m -25.40899,-100.2003 c 11.23744,-5.68613 52.22828,-31.29106 52.22828,-32.6244 0,-0.39708 -3.69141,-3.17791 -8.20313,-6.17961 C 165.45259,343.83703 100.30926,261.98419 62.177666,162.65625 c -5.442419,-14.17681 -5.493608,-14.01464 -2.071479,6.5625 16.126716,96.96938 66.112323,194.97203 135.440443,265.54687 8.64125,8.79666 7.66505,8.36082 12.8501,5.7372 z M 158.63461,280.1857 c 3.45509,-1.73658 12.96897,-12.63968 18.08355,-20.72408 l 2.59083,-4.09521 6.20488,0.024 c 7.78887,0.0301 10.24996,-1.24761 20.04214,-10.40515 9.46936,-8.85569 20.46082,-13.42276 32.30415,-13.42276 4.34005,0 16.01297,-3.13701 20.84421,-5.60172 2.6919,-1.37331 4.69571,-1.67276 8.57601,-1.28166 4.1754,0.42086 6.92748,-0.0946 15.69284,-2.93929 5.8462,-1.8973 10.75352,-3.31103 10.90513,-3.14161 0.97258,1.08679 -8.95011,19.52678 -10.5075,19.52678 -5.82632,0 -14.20142,8.74919 -9.92976,10.37327 9.94399,3.7807 38.47348,-30.74647 31.32047,-37.90489 -2.42139,-2.42322 -15.81174,-3.29357 -24.88023,-1.61717 -6.76358,1.25032 -6.44664,1.67139 -4.20545,-5.58718 1.62035,-5.24786 1.83286,-8.2489 1.61097,-22.75101 -0.23409,-15.30041 -0.11285,-16.78571 1.44138,-17.65625 0.93334,-0.52279 3.09841,-2.18098 4.81127,-3.68489 1.71285,-1.50391 3.78833,-2.73438 4.61217,-2.73438 2.95017,0 8.60582,-2.98727 10.73147,-5.66828 l 2.16438,-2.72987 -3.10188,-1.90616 c -1.70604,-1.04838 -4.75124,-2.35726 -6.76713,-2.9086 -2.01588,-0.55133 -5.84687,-2.23367 -8.51331,-3.73852 -2.66643,-1.50483 -5.6577,-2.74253 -6.64726,-2.75042 -5.71857,-0.0457 -6.77157,-6.79453 -1.83096,-11.73512 4.16543,-4.16545 3.29673,-6.57672 -1.2126,-3.36581 -4.94261,3.51946 -6.72438,1.71792 -6.72438,-6.79901 0,-2.8394 -0.45863,-5.446 -1.01918,-5.79244 -3.84143,-2.37413 -4.18633,10.49098 -0.49146,18.33173 4.08966,8.67854 1.80924,14.74595 -6.13165,16.3142 -7.47255,1.47575 -7.92331,3.96202 -1.04476,5.76261 2.97797,0.77954 4.34027,1.59238 4.08444,2.43705 -0.21112,0.69706 -1.36815,5.69708 -2.57118,11.11114 -6.01434,27.06677 -10.79107,31.61343 -35.97307,34.24039 -18.93608,1.97539 -27.32502,4.61217 -33.12435,10.4115 -4.95773,4.95773 -6.46321,10.66061 -2.81426,10.66061 1.01141,0 1.11227,0.42353 0.41234,1.73138 -0.50964,0.95225 -1.6212,4.85459 -2.47013,8.67187 -2.06119,9.2682 -3.11626,10.7161 -8.8862,12.1949 -5.38571,1.38032 -5.74565,1.85282 -7.4241,9.7456 -2.45479,11.54355 -7.09905,19.71733 -12.78334,22.4984 -5.09333,2.49193 -9.44399,7.14881 -8.34302,8.93022 0.78861,1.27601 6.49421,0.2227 10.96453,-2.02417 z M 447.55571,25.078125 c 0.74626,-1.190474 0.74626,-2.090776 0,-3.28125 -1.51859,-2.42252 -4.73799,-2.579779 -5.96276,-0.291266 -2.33735,4.367371 3.33433,7.76549 5.96276,3.572516 z m -425.624999,-3.75 c 0.746266,-1.190474 0.746266,-2.090776 0,-3.28125 -2.628427,-4.192974 -8.30011,-0.794855 -5.962764,3.572516 1.224776,2.288513 4.444172,2.131254 5.962764,-0.291266 z"
         id="path4623"
         inkscape:connector-curvature="0" />
      <path
         style="fill:#c87d4d"
         d="M 226.3068,559.39669 C 84.126226,452.15666 -5.9646276,261.16629 0.46845099,80.625 1.4397367,53.36633 5.293327,7.6461031 7.1257545,1.640625 7.6007201,0.08400373 19.282293,0 235.27134,0 h 227.64499 l 0.54715,3.046875 C 499.38904,203.09995 405.39597,440.13511 242.34375,560.6747 c -3.09375,2.28711 -5.88069,4.50932 -6.1932,4.93824 -0.31252,0.42892 -4.7422,-2.3684 -9.84375,-6.21625 z m 7.49891,-18.69357 c 0.74626,-1.19047 0.74626,-2.09077 0,-3.28125 -2.62843,-4.19297 -8.30011,-0.79485 -5.96276,3.57252 1.22477,2.28851 4.44417,2.13125 5.96276,-0.29127 z m 22.60054,-37.26562 c 0.93327,-1.03125 1.48592,-1.875 1.22811,-1.875 -0.25782,0 -1.23234,0.84375 -2.16561,1.875 -0.93327,1.03125 -1.48592,1.875 -1.22811,1.875 0.25782,0 1.23234,-0.84375 2.16561,-1.875 z m 24.375,-19.56058 C 405.72969,380.08771 474.24924,202.09063 450.98896,41.71875 c -0.5235,-3.609375 -0.96018,-7.019084 -0.97039,-7.577131 -0.0119,-0.65113 -1.80358,-0.866603 -5.00103,-0.601447 -4.58407,0.380148 -5.21546,0.180176 -7.89663,-2.500994 -4.71618,-4.716184 -6.26234,-4.017173 -5.47769,2.476447 2.61098,21.608224 3.32937,29.068716 4.34515,45.124912 9.86368,155.913223 -48.20085,300.318513 -165.51962,411.643853 -12.90095,12.24188 -9.87674,10.36285 10.3125,-6.40747 z m -72.38453,-43.3741 c 11.23744,-5.68613 52.22828,-31.29106 52.22828,-32.6244 0,-0.39708 -3.69141,-3.17791 -8.20313,-6.17961 C 165.45259,343.83703 100.30926,261.98419 62.177666,162.65625 c -5.442419,-14.17681 -5.493608,-14.01464 -2.071479,6.5625 16.126716,96.96938 66.112323,194.97203 135.440443,265.54687 8.64125,8.79666 7.66505,8.36082 12.8501,5.7372 z M 158.05431,280.6674 c 3.75674,-1.76919 7.16847,-5.39395 15.23481,-16.18612 l 6.57732,-8.79996 5.92616,-0.16016 c 7.51484,-0.2031 10.37626,-1.71292 20.58981,-10.86412 9.14081,-8.19003 14.42839,-10.68124 26.00036,-12.24992 13.0325,-1.76666 16.9179,-2.63029 23.27471,-5.17341 4.59701,-1.8391 8.20823,-2.56988 13.36743,-2.70508 5.07767,-0.13306 9.44553,-1.0001 15.50634,-3.07809 10.11121,-3.4667 10.10161,-3.48067 4.82585,7.02398 -3.95211,7.86913 -4.47777,8.47875 -9.56913,11.09788 -11.4574,5.89395 -10.45316,13.76521 1.05922,8.30222 8.73375,-4.14443 26.85845,-29.44235 25.36296,-35.40087 -1.03365,-4.1184 -23.15984,-6.2702 -30.77741,-2.99314 -1.46668,0.63096 -1.44612,0.15883 0.24933,-5.72459 1.5618,-5.41965 1.82652,-9.00811 1.71001,-23.18124 -0.12216,-14.86232 0.0425,-16.86984 1.44764,-17.65625 0.87202,-0.488 2.98692,-2.11774 4.69978,-3.62165 1.71285,-1.50391 3.99349,-2.73438 5.06808,-2.73438 4.46562,0 13.388,-6.90453 11.94325,-9.2422 -0.28105,-0.45474 -3.15668,-1.7954 -6.39028,-2.97927 -3.23362,-1.18385 -8.19961,-3.29566 -11.03555,-4.69291 -2.83594,-1.39725 -6.49472,-2.83008 -8.13062,-3.18409 -4.95531,-1.07233 -5.29666,-6.59925 -0.69195,-11.20396 4.24551,-4.24551 3.28261,-6.78342 -1.32805,-3.50034 -4.78356,3.4062 -6.72438,1.12676 -6.72438,-7.89759 0,-3.95601 -0.32328,-5.11214 -1.42945,-5.11214 -3.9467,0 -3.92702,9.78569 0.0393,19.54687 3.5438,8.72136 1.90059,12.98364 -5.80548,15.05866 -8.05922,2.17013 -8.79924,5.36637 -1.52393,6.58204 4.25523,0.71104 4.22608,0.0884 0.74936,15.99993 -5.23013,23.93613 -10.76847,28.70596 -36.47536,31.41394 -24.70489,2.60242 -43.09363,13.10044 -35.77205,20.42204 1.25307,1.25306 1.15057,2.42554 -0.92855,10.62165 -2.70799,10.67526 -2.5067,10.39422 -9.02255,12.59764 -5.71895,1.93393 -5.74346,1.96776 -7.7336,10.67366 -2.1479,9.3961 -6.85142,18.44501 -10.54754,20.29202 -13.73745,6.86483 -13.49468,15.18378 0.25415,8.70895 z M 447.55571,25.078125 c 0.74626,-1.190474 0.74626,-2.090776 0,-3.28125 -1.51859,-2.42252 -4.73799,-2.579779 -5.96276,-0.291266 -2.33735,4.367371 3.33433,7.76549 5.96276,3.572516 z m -425.624999,-3.75 c 0.746266,-1.190474 0.746266,-2.090776 0,-3.28125 -2.628427,-4.192974 -8.30011,-0.794855 -5.962764,3.572516 1.224776,2.288513 4.444172,2.131254 5.962764,-0.291266 z"
         id="path4621"
         inkscape:connector-curvature="0" />
      <path
         style="fill:#b76525"
         d="M 226.3068,559.39669 C 84.126226,452.15666 -5.9646276,261.16629 0.46845099,80.625 1.4397367,53.36633 5.293327,7.6461031 7.1257545,1.640625 7.6007201,0.08400373 19.282293,0 235.27134,0 h 227.64499 l 0.54715,3.046875 C 499.38904,203.09995 405.39597,440.13511 242.34375,560.6747 c -3.09375,2.28711 -5.88069,4.50932 -6.1932,4.93824 -0.31252,0.42892 -4.7422,-2.3684 -9.84375,-6.21625 z m 18.50871,-2.64902 C 406.11092,433.82566 491.05202,220.85824 462.82671,10.142037 L 461.65656,1.40625 235.16992,1.1699689 8.6832908,0.93368768 7.5547673,9.6074691 C -18.657014,211.07004 52.082722,404.93135 199.23589,534.90704 c 34.42431,30.40589 34.37284,30.38123 45.57962,21.84063 z m -19.71232,-8.68096 c -7.39174,-4.09692 -5.98146,-15.6657 2.2405,-18.37919 3.92222,-1.29445 6.64831,-0.58675 10.06651,2.61327 8.66818,8.11491 -1.83504,21.57009 -12.30701,15.76592 z m 8.70252,-7.36359 c 0.74626,-1.19047 0.74626,-2.09077 0,-3.28125 -2.62843,-4.19297 -8.30011,-0.79485 -5.96276,3.57252 1.22477,2.28851 4.44417,2.13125 5.96276,-0.29127 z M 221.25,517.86305 C 164.13473,474.91885 100.3271,399.54543 65.388446,333.75 19.694534,247.70058 -0.01294275,134.6708 14.062253,39.375 15.366792,30.542644 15.254957,29.269772 13.114718,28.590487 8.6908567,27.186408 6.9711604,18.054509 10.32716,13.788047 17.621352,4.5149845 33.169376,13.713789 27.788664,24.11894 l -1.439775,2.784217 11.903681,0.60712 c 6.547023,0.333916 97.59169,0.608831 202.32148,0.610921 l 190.4178,0.0038 0.65137,5.390625 c 2.61098,21.608224 3.32937,29.068716 4.34515,45.124912 C 446.82815,249.98272 363.43748,431.22097 232.03125,521.91353 l -2.8125,1.94111 z m -12.85328,-77.36023 c 11.23744,-5.68613 52.22828,-31.29106 52.22828,-32.6244 0,-0.39708 -3.69141,-3.17791 -8.20313,-6.17961 C 165.45259,343.83703 100.30926,261.98419 62.177666,162.65625 c -5.442419,-14.17681 -5.493608,-14.01464 -2.071479,6.5625 16.126716,96.96938 66.112323,194.97203 135.440443,265.54687 8.64125,8.79666 7.66505,8.36082 12.8501,5.7372 z M 157.1757,281.3155 c 4.69918,-2.1337 9.90847,-7.52376 17.40347,-18.00741 l 5.60451,-7.83934 4.98013,0.31552 c 7.07431,0.44821 12.02367,-2.06535 21.33283,-10.83401 9.07207,-8.54534 14.75846,-10.98866 29.28461,-12.58295 9.79085,-1.07459 16.95131,-2.95274 23.15916,-6.07455 3.27563,-1.64726 4.96616,-2.00551 6.5758,-1.39353 3.02726,1.15097 11.51838,-0.34443 20.43644,-3.59912 8.76742,-3.19972 8.69587,-3.36143 3.28233,7.41757 -3.88656,7.7386 -4.53855,8.51631 -8.67188,10.34403 -10.07786,4.45635 -12.55127,10.31329 -4.35532,10.31329 12.14707,0 36.16617,-34.58663 27.81772,-40.05652 -2.72993,-1.78864 -18.285,-1.96755 -25.82238,-0.29698 -4.12287,0.91378 -4.02718,1.32893 -1.61193,-6.99323 1.70822,-5.88596 1.83926,-8.11335 1.27622,-21.69174 -0.58556,-14.12124 -0.50918,-15.23035 1.14318,-16.60117 6.16891,-5.1178 9.27816,-7.17286 10.85237,-7.17286 11.11906,0 13.26966,-9.30174 3.03043,-13.10721 -3.56792,-1.32603 -8.38558,-3.41827 -10.70589,-4.64942 -2.32031,-1.23116 -5.47988,-2.50203 -7.02127,-2.82419 -4.55649,-0.95229 -4.97251,-6.45547 -0.79416,-10.50528 4.93043,-4.77877 3.44009,-7.73535 -1.81539,-3.6014 -1.31101,1.03125 -2.78965,1.875 -3.28584,1.875 -1.27889,0 -3.33848,-7.9193 -2.79668,-10.75352 0.5672,-2.96716 -1.12538,-5.46761 -2.9303,-4.32891 -2.30836,1.4563 -2.37656,9.35175 -0.13434,15.55118 4.32442,11.95636 4.34569,12.13358 1.83246,15.26634 -1.36388,1.70009 -3.77333,3.22752 -6.02323,3.81835 -8.18699,2.14991 -9.01654,5.40962 -1.6883,6.63413 4.22447,0.7059 4.18858,0.0439 0.84205,15.53118 -5.07299,23.47705 -11.45803,29.41423 -33.84125,31.46754 -26.15964,2.39974 -47.83792,14.27464 -38.51033,21.09514 1.49391,1.09237 1.50387,1.48955 0.13825,5.51189 -0.80942,2.38409 -1.47402,4.84731 -1.4769,5.47382 -0.0289,6.28553 -3.22945,10.59004 -8.94413,12.02902 -5.02838,1.26616 -5.44098,1.77874 -6.90347,8.57656 -1.16881,5.4328 -3.91567,12.69145 -6.8767,18.1719 -0.95488,1.76733 -3.28785,3.77068 -5.81676,4.99491 -11.89491,5.75822 -10.90149,13.94562 1.03449,8.52597 z M 21.930711,21.328125 c 0.746266,-1.190474 0.746266,-2.090776 0,-3.28125 -2.628427,-4.192974 -8.30011,-0.794855 -5.962764,3.572516 1.224775,2.288513 4.444172,2.131254 5.962764,-0.291266 z M 438.1566,32.088529 c -6.64523,-5.382845 -5.01269,-15.402344 2.93709,-18.026009 10.98493,-3.625355 18.23197,11.550017 8.70307,18.22432 -2.7792,1.946626 -9.12567,1.838503 -11.64016,-0.198311 z m 9.39911,-7.010404 c 0.74626,-1.190474 0.74626,-2.090776 0,-3.28125 -1.51859,-2.42252 -4.73799,-2.579779 -5.96276,-0.291266 -2.33735,4.367371 3.33433,7.76549 5.96276,3.572516 z"
         id="path4619"
         inkscape:connector-curvature="0" />
      <path
         style="fill:#5a5a5a"
         d="M 226.3068,559.39669 C 84.126226,452.15666 -5.9646276,261.16629 0.46845099,80.625 1.4397367,53.36633 5.293327,7.6461031 7.1257545,1.640625 7.6007201,0.08400373 19.282293,0 235.27134,0 h 227.64499 l 0.54715,3.046875 C 499.38904,203.09995 405.39597,440.13511 242.34375,560.6747 c -3.09375,2.28711 -5.88069,4.50932 -6.1932,4.93824 -0.31252,0.42892 -4.7422,-2.3684 -9.84375,-6.21625 z m 23.45056,-6.23941 C 410.49083,424.9346 489.24524,224.6066 463.07229,10.546875 L 461.89736,0.9375 H 235.27177 8.6461704 L 8.1071258,3.984375 C 7.387932,8.0495189 5.0277564,29.318797 3.5557691,45 -14.633318,238.76984 79.884053,452.73798 232.01757,562.19112 c 3.46191,2.4907 2.99544,2.72824 17.73979,-9.03384 z M 223.5,546.1875 c -3.40803,-3.40803 -4.1445,-7.25196 -2.14028,-11.17101 4.06257,-7.94392 16.17587,-6.82951 18.50293,1.70226 2.73474,10.0265 -9.00901,16.82239 -16.36265,9.46875 z m 10.30571,-5.48438 c 0.74626,-1.19047 0.74626,-2.09077 0,-3.28125 -2.62843,-4.19297 -8.30011,-0.79485 -5.96276,3.57252 1.22477,2.28851 4.44417,2.13125 5.96276,-0.29127 z m -13.1638,-23.47836 C 76.902924,407.74588 1.4709694,221.48289 26.773598,38.508685 27.516869,33.133775 28.125,28.597653 28.125,28.428415 c 0,-0.169238 90.59429,-0.201272 201.32064,-0.07118 L 430.76628,28.59375 431.87916,37.5 c 22.51937,180.22148 -40.56636,348.54426 -173.61218,463.22485 -28.15617,24.26959 -27.69151,24.06583 -37.62507,16.49991 z m -12.24519,-76.72194 c 11.23744,-5.68613 52.22828,-31.29106 52.22828,-32.6244 0,-0.39708 -3.69141,-3.17791 -8.20313,-6.17961 C 165.45259,343.83703 100.30926,261.98419 62.177666,162.65625 c -5.442419,-14.17681 -5.493608,-14.01464 -2.071479,6.5625 16.126716,96.96938 66.112323,194.97203 135.440443,265.54687 8.64125,8.79666 7.66505,8.36082 12.8501,5.7372 z M 157.1757,281.3155 c 4.69143,-2.13018 9.90843,-7.52335 17.35582,-17.94187 l 5.5569,-7.77379 5.06272,0.23452 c 7.18748,0.33293 12.09204,-2.16791 21.3455,-10.8841 9.07207,-8.54534 14.75846,-10.98866 29.28461,-12.58295 9.24933,-1.01516 16.94122,-2.94228 22.06613,-5.52846 2.2317,-1.12617 5.45077,-1.67515 9.84375,-1.67875 4.70826,-0.004 9.03697,-0.8108 15.53084,-2.89522 4.95176,-1.58944 9.26195,-2.88988 9.57819,-2.88988 3.41015,0 -8.25507,17.25198 -13.40546,19.82565 -8.93642,4.46558 -11.31014,10.17435 -4.23053,10.17435 7.50092,0 16.54202,-8.42787 26.98172,-25.15163 8.67652,-13.89923 5.44272,-17.43547 -14.80214,-16.18658 -14.51918,0.89568 -13.00514,1.75129 -10.73585,-6.06696 1.68864,-5.81774 1.82102,-8.09167 1.25951,-21.6333 -0.58556,-14.12124 -0.50918,-15.23035 1.14318,-16.60117 6.16891,-5.1178 9.27816,-7.17286 10.85237,-7.17286 11.11906,0 13.26966,-9.30174 3.03043,-13.10721 -3.56792,-1.32603 -8.38558,-3.41827 -10.70589,-4.64942 -2.32031,-1.23116 -5.47988,-2.50203 -7.02127,-2.82419 -4.55649,-0.95229 -4.97251,-6.45547 -0.79416,-10.50528 5.15674,-4.99811 3.70769,-7.25183 -2.30544,-3.58569 l -3.0896,1.88371 -1.39835,-3.34672 c -0.7691,-1.8407 -1.30009,-5.01205 -1.17999,-7.04743 0.26909,-4.56044 -1.13311,-6.32442 -3.30271,-4.15483 -2.32348,2.32349 -1.9828,10.52691 0.72934,17.56157 4.17627,10.8323 3.09069,14.48665 -4.79692,16.14774 -8.40717,1.77052 -8.91798,5.98867 -0.90317,7.45817 2.87693,0.52747 3.46821,0.97486 2.96358,2.24238 -0.34673,0.8709 -1.65098,6.22408 -2.89835,11.89595 -3.5476,16.1312 -4.05204,17.32624 -9.73099,23.05301 -6.41897,6.47304 -10.53681,7.94824 -25.80322,9.24388 -24.85114,2.10911 -44.07184,13.31163 -36.73988,21.41335 0.912,1.00776 1.16535,2.12564 0.68195,3.0091 -0.42303,0.77311 -1.48573,4.65494 -2.36157,8.62628 -1.79639,8.14541 -2.3751,8.84275 -9.1791,11.06084 l -4.87403,1.58891 -1.5387,6.47106 c -3.327,13.99163 -6.98337,20.98378 -12.16946,23.27188 -4.51351,1.99135 -9.28796,6.6448 -9.28796,9.05255 0,2.40492 4.68402,2.40181 9.9882,-0.007 z M 437.25,30.5625 c -3.40803,-3.408031 -4.1445,-7.251957 -2.14028,-11.171007 4.06257,-7.943928 16.17587,-6.829511 18.50293,1.702257 2.73474,10.026498 -9.00901,16.822384 -16.36265,9.46875 z m 10.30571,-5.484375 c 0.74626,-1.190474 0.74626,-2.090776 0,-3.28125 -1.51859,-2.42252 -4.73799,-2.579779 -5.96276,-0.291266 -2.33735,4.367371 3.33433,7.76549 5.96276,3.572516 z M 11.625,26.8125 C 8.2169694,23.404469 7.4805042,19.560543 9.484725,15.641493 13.504516,7.7811985 25.730348,8.7916071 27.95961,17.168356 30.721427,27.546254 19.175565,34.363065 11.625,26.8125 Z m 10.305711,-5.484375 c 0.746266,-1.190474 0.746266,-2.090776 0,-3.28125 -2.628427,-4.192974 -8.30011,-0.794855 -5.962764,3.572516 1.224775,2.288513 4.444172,2.131254 5.962764,-0.291266 z"
         id="path4617"
         inkscape:connector-curvature="0" />
      <path
         style="fill:#543a1c"
         d="M 228.61876,560.94983 C 122.25983,483.12866 36.867889,343.98907 10.857826,206.12515 -0.64921547,145.13316 -2.4141968,49.025068 7.1197775,2.578125 L 7.6489786,0 H 235.24492 462.84086 l 1.05913,7.734375 C 492.27514,214.94663 415.19515,417.0758 257.8125,548.16382 c -22.63163,18.85046 -21.55178,18.37752 -29.19374,12.78601 z m 21.1386,-7.79255 C 410.49083,424.9346 489.24524,224.6066 463.07229,10.546875 L 461.89736,0.9375 H 235.27177 8.6461704 L 8.1071258,3.984375 C 7.387932,8.0495189 5.0277564,29.318797 3.5557691,45 -14.633318,238.76984 79.884053,452.73798 232.01757,562.19112 c 3.46191,2.4907 2.99544,2.72824 17.73979,-9.03384 z M 223.5,546.1875 c -3.40803,-3.40803 -4.1445,-7.25196 -2.14028,-11.17101 4.06257,-7.94392 16.17587,-6.82951 18.50293,1.70226 2.73474,10.0265 -9.00901,16.82239 -16.36265,9.46875 z m 10.875,-5.25 c 0.71296,-1.33218 0.71296,-2.41782 0,-3.75 -1.77095,-3.30905 -7.5,-1.87679 -7.5,1.875 0,3.75179 5.72905,5.18405 7.5,1.875 z M 220.64191,517.22476 C 76.902924,407.74588 1.4709694,221.48289 26.773598,38.508685 27.516869,33.133775 28.125,28.597653 28.125,28.428415 c 0,-0.169238 90.59429,-0.201272 201.32064,-0.07118 L 430.76628,28.59375 431.87916,37.5 c 22.51937,180.22148 -40.56636,348.54426 -173.61218,463.22485 -28.15617,24.26959 -27.69151,24.06583 -37.62507,16.49991 z m 16.70032,-1.36706 C 379.89372,408.95463 460.16804,207.46759 429.69859,33.046875 L 429.16633,30 H 229.29944 29.432544 l -1.121043,9.140625 C 5.4207936,225.78404 75.563371,401.11304 217.89026,513.01336 c 12.37805,9.73187 10.61203,9.47363 19.45197,2.84434 z M 142.5,281.43391 c 0,-2.29372 5.28746,-7.25258 9.69218,-9.08982 4.18491,-1.74558 8.91477,-10.6516 11.59785,-21.83804 1.86107,-7.75932 2.13701,-8.12196 7.2746,-9.56039 6.50542,-1.82142 14.40418,-19.89037 10.07787,-23.05383 -5.47064,-4.00024 8.94357,-16.83973 20.88875,-18.60671 l 3.75,-0.55471 -3.33251,1.30357 c -12.79804,5.0062 -20.65173,13.65567 -16.53237,18.20751 0.912,1.00776 1.16535,2.12564 0.68195,3.0091 -0.42303,0.77311 -1.48573,4.65494 -2.36157,8.62628 -1.79639,8.14541 -2.3751,8.84275 -9.1791,11.06084 l -4.87403,1.58891 -1.5387,6.47106 c -3.327,13.99163 -6.98337,20.98378 -12.16946,23.27188 -4.51351,1.99135 -9.28796,6.6448 -9.28796,9.05255 0,1.29808 -0.65625,1.80289 -2.34375,1.80289 -1.63379,0 -2.34375,-0.51226 -2.34375,-1.69109 z m 124.82155,-32.89373 c -3.01418,-1.90987 3.89035,-8.74695 10.98779,-10.88045 1.63141,-0.4904 3.20953,-2.80338 5.98521,-8.77225 2.07329,-4.45843 3.81933,-8.1774 3.88008,-8.2644 0.0608,-0.087 1.27913,-0.45149 2.7075,-0.80999 l 2.59704,-0.65181 -4.18073,8.58978 c -4.07457,8.37164 -4.32608,8.6624 -9.90374,11.44959 -5.94246,2.96948 -9.05487,6.32713 -8.12096,8.76086 0.60466,1.57571 -1.81867,1.93053 -3.95219,0.57867 z m 8.12767,-40.1181 c 0.67675,-0.27081 1.48535,-0.23751 1.79688,0.074 0.31152,0.31153 -0.2422,0.5331 -1.23047,0.4924 -1.09214,-0.045 -1.31428,-0.26713 -0.56641,-0.5664 z m -68.4961,-10.29297 c 0.64454,-0.26007 1.69922,-0.26007 2.34375,0 0.64454,0.26007 0.11719,0.47287 -1.17187,0.47287 -1.28906,0 -1.81641,-0.2128 -1.17188,-0.47287 z m 18.8086,-1.89453 c 0.67675,-0.27081 1.48535,-0.23751 1.79688,0.074 0.31152,0.31153 -0.2422,0.5331 -1.23047,0.4924 -1.09214,-0.045 -1.31428,-0.26713 -0.56641,-0.5664 z m 6.74435,-1.17302 c 12.79881,-3.89323 22.48581,-21.63457 23.73633,-43.47215 0.0762,-1.33029 0.60448,-1.56444 2.4722,-1.09567 3.0842,0.77409 2.97171,0.36014 1.46149,5.37822 -0.72471,2.40802 -2.03917,8.08365 -2.92102,12.6125 -3.20551,16.46236 -13.6703,27.84897 -25.15645,27.37246 -1.66432,-0.0691 -1.606,-0.1829 0.40745,-0.79536 z m 16.38038,-46.36636 c -2.45206,-1.79299 -0.58595,-3.9646 4.58213,-5.33225 8.82129,-2.33442 10.64749,-7.33959 5.94295,-16.2881 -3.55517,-6.76226 -2.47982,-21.07618 1.40308,-18.67641 0.41134,0.25422 0.74789,3.17507 0.74789,6.49078 0,4.12685 0.7138,7.88001 2.26282,11.89779 4.17627,10.8323 3.09069,14.48665 -4.79692,16.14774 -4.94713,1.04185 -8.28255,4.13469 -6.17927,5.72987 2.43171,1.84425 -1.44146,1.87414 -3.96268,0.0306 z m 19.63066,-26.00671 c -0.67007,-1.08418 1.15896,-2.65007 3.12351,-2.67414 1.74702,-0.0214 1.41684,1.25665 -0.65966,2.55343 -1.30288,0.81367 -2.01405,0.84851 -2.46385,0.12071 z M 437.25,30.5625 c -3.40803,-3.408031 -4.1445,-7.251957 -2.14028,-11.171007 4.06257,-7.943928 16.17587,-6.829511 18.50293,1.702257 2.73474,10.026498 -9.00901,16.822384 -16.36265,9.46875 z m 10.875,-5.25 c 0.71296,-1.332177 0.71296,-2.417823 0,-3.75 -1.77095,-3.30905 -7.5,-1.876787 -7.5,1.875 0,3.751787 5.72905,5.18405 7.5,1.875 z m -436.5,1.5 C 8.2169694,23.404469 7.4805042,19.560543 9.484725,15.641493 13.504516,7.7811985 25.730348,8.7916071 27.95961,17.168356 30.721427,27.546254 19.175565,34.363065 11.625,26.8125 Z m 10.875,-5.25 c 0.712959,-1.332177 0.712959,-2.417823 0,-3.75 -1.77095,-3.30905 -7.5,-1.876787 -7.5,1.875 0,3.751787 5.72905,5.18405 7.5,1.875 z"
         id="path4615"
         inkscape:connector-curvature="0" />
      <path
         style="fill:#120f0d"
         d="M 224.68836,557.75829 C 170.72706,516.67508 104.00369,438.59818 76.301667,384.12239 c -2.945784,-5.79286 -0.33092,-1.86965 7.401613,11.10502 37.27152,62.53906 89.80734,122.59859 142.10621,162.45738 10.59494,8.07479 7.99318,8.2404 20.29528,-1.29196 46.07605,-35.70231 94.49272,-89.17399 128.80422,-142.25221 3.24983,-5.02734 6.10126,-9.14062 6.33648,-9.14062 0.57535,0 0.32724,0.39935 -9.64068,15.51697 -34.25038,51.94506 -83.25438,105.14769 -127.46845,138.38987 -10.25377,7.70927 -7.60836,7.8655 -19.44798,-1.14855 z m 0.64266,-10.14091 c -5.6972,-3.56727 -6.23728,-11.26133 -1.09427,-15.5889 9.0457,-7.61145 21.09967,4.83488 13.18512,13.61429 -3.36995,3.73821 -8.05283,4.503 -12.09085,1.97461 z m 10.21585,-3.61697 c 2.24749,-2.02541 2.11976,-7.27128 -0.23437,-9.62541 -4.10419,-4.10419 -11.5625,-1.07907 -11.5625,4.68978 0,6.30535 7.01854,9.2418 11.79687,4.93563 z M 226.875,542.8125 c -1.03125,-1.03125 -1.875,-2.71875 -1.875,-3.75 0,-4.62232 6.63367,-7.29711 9.69845,-3.91056 4.93334,5.45129 -2.62842,12.85559 -7.82345,7.66056 z m 6.3539,-0.52191 c 3.52373,-2.46811 2.14377,-6.97809 -2.13515,-6.97809 -4.0121,0 -5.91531,5.48118 -2.57813,7.42491 2.16685,1.26207 2.2902,1.25038 4.71328,-0.44682 z m -13.04441,-25.8558 C 76.748968,407.11756 1.8682352,220.87712 27.338951,36.796875 L 28.409137,29.0625 H 229.25918 430.10923 l 0.51666,2.109375 c 8.57749,35.020228 6.96829,123.235255 -3.2365,177.421875 -22.50184,119.483 -92.7168,234.05648 -188.49026,307.56966 -10.84461,8.32403 -8.19907,8.28567 -18.71464,0.27138 z m 14.28422,1.84824 C 366.50254,423.31647 447.29957,242.88173 434.0603,72.558016 432.97166,58.552625 430.44715,35.183288 429.69078,32.109375 L 429.17173,30 H 229.25918 29.346637 l -1.070186,7.734375 C 4.0711117,212.66957 68.265626,383.56455 202.03125,500.29447 c 22.70527,19.81365 26.76775,22.06655 32.43746,17.98856 z M 381.83925,403.35937 c 2.79934,-5.08066 11.30431,-18.98437 11.61283,-18.98437 0.49424,0 0.84651,-0.64337 -5.77466,10.54687 -2.97464,5.02735 -5.59229,9.14063 -5.817,9.14063 -0.22472,0 -0.23425,-0.31641 -0.0212,-0.70313 z m 23.40544,-42.09906 c 6.31073,-12.45528 11.61825,-22.50639 11.79449,-22.33583 0.40615,0.3931 -20.16845,40.95147 -21.94689,43.26353 -0.72691,0.94504 3.84166,-8.47243 10.1524,-20.9277 z M 71.71875,375.9375 c -1.306434,-2.57813 -2.164399,-4.6875 -1.906586,-4.6875 0.257812,0 1.537652,2.10937 2.844086,4.6875 1.306434,2.57812 2.164399,4.6875 1.906586,4.6875 -0.257812,0 -1.537652,-2.10938 -2.844086,-4.6875 z M 61.356067,356.1498 c -3.901243,-7.78948 -6.946566,-14.3093 -6.767385,-14.48848 0.17918,-0.17919 3.577663,6.19403 7.552182,14.1627 3.974519,7.96866 7.019842,14.48848 6.767385,14.48848 -0.252459,0 -3.65094,-6.37322 -7.552182,-14.1627 z m -9.156794,-19.16212 c -2.202347,-4.61838 -1.89252,-5.40426 0.409944,-1.03984 1.045742,1.98226 1.73552,3.76992 1.532839,3.97261 -0.202681,0.20268 -1.076934,-1.11707 -1.942783,-2.93277 z m 365.066817,0.0436 c 0,-0.51563 0.80839,-2.41406 1.79641,-4.21875 0.98802,-1.80469 1.79641,-2.85938 1.79641,-2.34375 0,0.51562 -0.80839,2.41406 -1.79641,4.21875 -0.98802,1.80469 -1.79641,2.85937 -1.79641,2.34375 z m -368.816818,-8.4811 c -2.202346,-4.61838 -1.892519,-5.40426 0.409945,-1.03984 1.045742,1.98226 1.73552,3.76992 1.532839,3.97261 -0.202681,0.20268 -1.076934,-1.11707 -1.942784,-2.93277 z m 372.678888,0.0255 c 0.90714,-3.11706 7.68415,-19.13838 7.97325,-18.8493 0.43268,0.43269 -4.95245,14.09083 -6.85515,17.38651 -0.76791,1.33009 -1.27104,1.98834 -1.1181,1.46279 z M 45.584568,321.99499 c -0.904668,-2.35752 -0.637792,-2.96583 0.467375,-1.06532 0.54721,0.94101 0.797436,1.90843 0.556059,2.14981 -0.241376,0.24138 -0.701922,-0.24665 -1.023434,-1.08449 z m -1.875,-4.6875 c -0.904668,-2.35752 -0.637792,-2.96583 0.467375,-1.06532 0.54721,0.94101 0.797436,1.90843 0.556059,2.14981 -0.241376,0.24138 -0.701922,-0.24665 -1.023434,-1.08449 z m -1.875,-4.6875 c -0.904668,-2.35752 -0.637792,-2.96583 0.467375,-1.06532 0.54721,0.94101 0.797436,1.90843 0.556059,2.14981 -0.241376,0.24138 -0.701922,-0.24665 -1.023434,-1.08449 z m -1.875,-4.6875 c -0.904668,-2.35752 -0.637792,-2.96583 0.467375,-1.06532 0.54721,0.94101 0.797436,1.90843 0.556059,2.14981 -0.241376,0.24138 -0.701922,-0.24665 -1.023434,-1.08449 z m 389.444152,0.0363 c 0,-0.51563 0.40894,-1.57031 0.90878,-2.34375 0.49984,-0.77344 0.90878,-0.98438 0.90878,-0.46875 0,0.51562 -0.40894,1.57031 -0.90878,2.34375 -0.49984,0.77344 -0.90878,0.98437 -0.90878,0.46875 z M 38.015529,303.08731 c -2.449313,-6.29958 -7.979068,-23.12378 -7.69399,-23.40885 0.191524,-0.19152 2.285113,5.23833 4.65242,12.06633 2.367306,6.82801 4.167164,12.55158 3.999684,12.71907 -0.16748,0.16747 -0.59863,-0.45197 -0.958114,-1.37655 z m 393.263191,0.19394 c 0,-0.51563 0.40894,-1.57031 0.90878,-2.34375 0.49984,-0.77344 0.90878,-0.98438 0.90878,-0.46875 0,0.51562 -0.40894,1.57031 -0.90878,2.34375 -0.49984,0.77344 -0.90878,0.98437 -0.90878,0.46875 z m 2.028,-5.15625 c 0.26424,-0.77344 1.85169,-5.54618 3.52765,-10.60609 1.67596,-5.05991 3.2113,-9.03573 3.41187,-8.83517 0.4555,0.4555 -5.92308,19.51927 -6.78767,20.28644 -0.34777,0.30859 -0.41611,-0.0717 -0.15185,-0.84518 z M 26.785715,270.40178 c -0.344833,-1.37391 -0.446164,-2.67883 -0.225181,-2.89981 0.220982,-0.22098 0.68392,0.72233 1.028751,2.09625 0.344832,1.37391 0.446164,2.67883 0.225181,2.89981 -0.220982,0.22098 -0.68392,-0.72233 -1.028751,-2.09625 z m 415.846065,0.53572 c 0,-0.77344 0.36257,-2.25 0.80572,-3.28125 0.50786,-1.18185 0.80572,-1.35514 0.80572,-0.46875 0,0.77344 -0.36257,2.25 -0.80572,3.28125 -0.50786,1.18185 -0.80572,1.35514 -0.80572,0.46875 z M 24.910715,263.83928 c -0.344833,-1.37391 -0.446164,-2.67883 -0.225181,-2.89981 0.220982,-0.22098 0.68392,0.72233 1.028751,2.09625 0.344832,1.37391 0.446164,2.67883 0.225181,2.89981 -0.220982,0.22098 -0.68392,-0.72233 -1.028751,-2.09625 z M 444.50678,264.375 c 0,-0.77344 0.36257,-2.25 0.80572,-3.28125 0.50786,-1.18185 0.80572,-1.35514 0.80572,-0.46875 0,0.77344 -0.36257,2.25 -0.80572,3.28125 -0.50786,1.18185 -0.80572,1.35514 -0.80572,0.46875 z m 1.875,-6.5625 c 0,-0.77344 0.36257,-2.25 0.80572,-3.28125 0.50786,-1.18185 0.80572,-1.35514 0.80572,-0.46875 0,0.77344 -0.36257,2.25 -0.80572,3.28125 -0.50786,1.18185 -0.80572,1.35514 -0.80572,0.46875 z M 22.098215,254.46428 c -0.344833,-1.37391 -0.446164,-2.67883 -0.225181,-2.89981 0.220982,-0.22098 0.68392,0.72233 1.028751,2.09625 0.344832,1.37391 0.446164,2.67883 0.225181,2.89981 -0.220982,0.22098 -0.68392,-0.72233 -1.028751,-2.09625 z M 20.15625,247.5 c -0.355947,-1.62062 -0.451757,-3.14199 -0.212911,-3.38084 0.238846,-0.23885 0.703796,0.9134 1.033223,2.56053 0.781548,3.90773 0.02415,4.66513 -0.820312,0.82031 z m 428.98027,0.39063 c 0.045,-1.09214 0.26713,-1.31428 0.5664,-0.56641 0.27081,0.67675 0.23751,1.48535 -0.074,1.79688 -0.31152,0.31152 -0.5331,-0.2422 -0.4924,-1.23047 z m 0.9375,-3.75 c 0.045,-1.09214 0.26713,-1.31428 0.5664,-0.56641 0.27081,0.67675 0.23751,1.48535 -0.074,1.79688 -0.31152,0.31152 -0.5331,-0.2422 -0.4924,-1.23047 z m -431.250007,-2.8125 c 0.04498,-1.09214 0.267132,-1.31428 0.566406,-0.56641 0.270817,0.67675 0.23751,1.48535 -0.07402,1.79688 -0.311524,0.31152 -0.533101,-0.2422 -0.492394,-1.23047 z m 432.187507,-0.9375 c 0.045,-1.09214 0.26713,-1.31428 0.5664,-0.56641 0.27081,0.67675 0.23751,1.48535 -0.074,1.79688 -0.31152,0.31152 -0.5331,-0.2422 -0.4924,-1.23047 z m -433.125007,-2.8125 c 0.04498,-1.09214 0.267132,-1.31428 0.566406,-0.56641 0.270817,0.67675 0.23751,1.48535 -0.07402,1.79688 -0.311524,0.31152 -0.533101,-0.2422 -0.492394,-1.23047 z M 451.97692,237.1875 c -0.0362,-0.77344 0.5212,-3.51563 1.23858,-6.09375 0.71739,-2.57813 1.33392,-4.05469 1.37008,-3.28125 0.0362,0.77344 -0.5212,3.51562 -1.23858,6.09375 -0.71739,2.57812 -1.33393,4.05469 -1.37008,3.28125 z M 16.949013,233.82813 c 0.04498,-1.09214 0.267132,-1.31428 0.566406,-0.56641 0.270817,0.67675 0.23751,1.48535 -0.07402,1.79688 -0.311524,0.31152 -0.533101,-0.2422 -0.492394,-1.23047 z m -0.9375,-3.75 c 0.04498,-1.09214 0.267132,-1.31428 0.566406,-0.56641 0.270817,0.67675 0.23751,1.48535 -0.07402,1.79688 -0.311524,0.31152 -0.533101,-0.2422 -0.492394,-1.23047 z m -1.428179,-5.59897 c -0.352957,-1.88141 -0.45424,-3.60826 -0.225072,-3.83742 0.229166,-0.22917 0.705449,1.12268 1.058404,3.0041 0.352957,1.88141 0.45424,3.60826 0.225072,3.83742 -0.229166,0.22917 -0.705449,-1.12268 -1.058404,-3.0041 z m 440.178186,-0.0261 c 0.045,-1.09214 0.26713,-1.31428 0.5664,-0.56641 0.27081,0.67675 0.23751,1.48535 -0.074,1.79688 -0.31152,0.31152 -0.5331,-0.2422 -0.4924,-1.23047 z m 0.9375,-3.75 c 0.045,-1.09214 0.26713,-1.31428 0.5664,-0.56641 0.27081,0.67675 0.23751,1.48535 -0.074,1.79688 -0.31152,0.31152 -0.5331,-0.2422 -0.4924,-1.23047 z M 13.273027,217.5 c 0,-1.28906 0.212787,-1.81641 0.472861,-1.17188 0.260074,0.64454 0.260074,1.69922 0,2.34375 -0.260074,0.64454 -0.472861,0.11719 -0.472861,-1.17187 z m 443.437493,-0.9375 c 0,-1.28906 0.2128,-1.81641 0.47287,-1.17188 0.26007,0.64454 0.26007,1.69922 0,2.34375 -0.26007,0.64454 -0.47287,0.11719 -0.47287,-1.17187 z m -444.374993,-3.75 c 0,-1.28906 0.212787,-1.81641 0.472861,-1.17188 0.260074,0.64454 0.260074,1.69922 0,2.34375 -0.260074,0.64454 -0.472861,0.11719 -0.472861,-1.17187 z M 457.64802,211.875 c 0,-1.28906 0.2128,-1.81641 0.47287,-1.17188 0.26007,0.64454 0.26007,1.69922 0,2.34375 -0.26007,0.64454 -0.47287,0.11719 -0.47287,-1.17187 z m -446.249993,-3.75 c 0,-1.28906 0.212787,-1.81641 0.472861,-1.17188 0.260074,0.64454 0.260074,1.69922 0,2.34375 -0.260074,0.64454 -0.472861,0.11719 -0.472861,-1.17187 z m 447.187493,-0.9375 c 0,-1.28906 0.2128,-1.81641 0.47287,-1.17188 0.26007,0.64454 0.26007,1.69922 0,2.34375 -0.26007,0.64454 -0.47287,0.11719 -0.47287,-1.17187 z m -448.124993,-3.75 c 0,-1.28906 0.212787,-1.81641 0.472861,-1.17188 0.260074,0.64454 0.260074,1.69922 0,2.34375 -0.260074,0.64454 -0.472861,0.11719 -0.472861,-1.17187 z m 449.062493,-1.875 c 0,-1.28906 0.2128,-1.81641 0.47287,-1.17188 0.26007,0.64454 0.26007,1.69922 0,2.34375 -0.26007,0.64454 -0.47287,0.11719 -0.47287,-1.17187 z M 9.5577647,198.28125 c 0.019106,-1.54688 0.2292169,-2.06619 0.4669143,-1.15403 0.237697,0.91215 0.222065,2.17778 -0.034734,2.8125 -0.2568066,0.63471 -0.4512863,-0.1116 -0.4321803,-1.65847 z m 450.9375053,-1.875 c 0.0191,-1.54688 0.22921,-2.06619 0.46691,-1.15403 0.23769,0.91215 0.22206,2.17778 -0.0348,2.8125 -0.25681,0.63471 -0.45129,-0.1116 -0.43218,-1.65847 z m -451.8750056,-3.75 c 0.019106,-1.54688 0.2292174,-2.06619 0.4669144,-1.15403 0.2376969,0.91215 0.2220648,2.17778 -0.034738,2.8125 -0.2568029,0.63471 -0.4512823,-0.1116 -0.4321764,-1.65847 z m 452.8125056,-1.875 c 0.0191,-1.54688 0.22921,-2.06619 0.46691,-1.15403 0.23769,0.91215 0.22206,2.17778 -0.0348,2.8125 -0.25681,0.63471 -0.45129,-0.1116 -0.43218,-1.65847 z m -453.7500056,-3.75 c 0.019106,-1.54688 0.2292174,-2.06619 0.4669144,-1.15403 0.2376969,0.91215 0.2220648,2.17778 -0.034738,2.8125 -0.2568029,0.63471 -0.4512823,-0.1116 -0.4321764,-1.65847 z M 462.405,184.6875 c 0,-1.80469 0.19294,-2.54297 0.42875,-1.64063 0.2358,0.90235 0.2358,2.37891 0,3.28125 -0.23581,0.90235 -0.42875,0.16407 -0.42875,-1.64062 z M 6.7452644,180.46875 c 0.019106,-1.54688 0.2292174,-2.06619 0.4669144,-1.15403 0.2376969,0.91215 0.2220648,2.17778 -0.034738,2.8125 -0.256803,0.63471 -0.4512823,-0.1116 -0.4321764,-1.65847 z M 463.3425,178.125 c 0,-1.80469 0.19294,-2.54297 0.42875,-1.64063 0.2358,0.90235 0.2358,2.37891 0,3.28125 -0.23581,0.90235 -0.42875,0.16407 -0.42875,-1.64062 z M 5.8425025,173.4375 c 0,-1.80469 0.1929331,-2.54297 0.4287402,-1.64063 0.2358071,0.90235 0.2358071,2.37891 0,3.28125 -0.2358071,0.90235 -0.4287402,0.16407 -0.4287402,-1.64062 z M 464.29892,171.09375 c 0.0104,-2.0625 0.2024,-2.79586 0.42664,-1.62969 0.22424,1.16616 0.21572,2.85366 -0.0189,3.75 -0.23465,0.89633 -0.41813,-0.0579 -0.40772,-2.12031 z M 4.9050025,165.9375 c 0,-1.80469 0.1929331,-2.54297 0.4287402,-1.64063 0.2358071,0.90235 0.2358071,2.37891 0,3.28125 -0.2358071,0.90235 -0.4287402,0.16407 -0.4287402,-1.64062 z M 465.23642,163.59375 c 0.0104,-2.0625 0.2024,-2.79586 0.42664,-1.62969 0.22424,1.16616 0.21572,2.85366 -0.0189,3.75 -0.23465,0.89633 -0.41813,-0.0579 -0.40772,-2.12031 z M 4.0053413,157.5 c 0,-2.32031 0.1828275,-3.26953 0.4062834,-2.10938 0.2234558,1.16016 0.2234558,3.0586 0,4.21875 C 4.1881688,160.76953 4.0053413,159.82031 4.0053413,157.5 Z M 466.19284,154.6875 c 0,-2.32031 0.18283,-3.26953 0.40628,-2.10938 0.22346,1.16016 0.22346,3.0586 0,4.21875 -0.22345,1.16016 -0.40628,0.21094 -0.40628,-2.10937 z M 3.0806382,147.65625 c 0.00704,-2.57813 0.1891058,-3.52154 0.4045942,-2.09648 0.2154885,1.42505 0.2097299,3.53443 -0.012797,4.6875 -0.2225268,1.15306 -0.3988356,-0.0129 -0.3917972,-2.59102 z m 464.0848618,-3.75 c 0.006,-3.09375 0.18028,-4.24635 0.38893,-2.56133 0.20865,1.68501 0.20435,4.21626 -0.01,5.625 -0.21392,1.40873 -0.38463,0.0301 -0.37937,-3.06367 z M 2.1750695,135 c 0,-3.35156 0.1701512,-4.72266 0.3781139,-3.04688 0.2079625,1.67579 0.2079625,4.41797 0,6.09375 C 2.3452207,139.72266 2.1750695,138.35156 2.1750695,135 Z M 468.1277,129.375 c 0,-3.86719 0.16548,-5.44922 0.36774,-3.51562 0.20226,1.93359 0.20226,5.09765 0,7.03124 -0.20226,1.9336 -0.36774,0.35157 -0.36774,-3.51562 z m -466.8289257,-15 c 0,-6.44531 0.1497816,-9.08203 0.332848,-5.85937 0.1830663,3.22265 0.1830663,8.49609 0,11.71875 -0.1830664,3.22265 -0.332848,0.58593 -0.332848,-5.85938 z M 469.15944,94.6875 c 0,-13.664063 0.13107,-19.253906 0.29125,-12.421875 0.16018,6.832031 0.16018,18.011715 0,24.843755 -0.16018,6.83203 -0.29125,1.24218 -0.29125,-12.42188 z M 1.2954038,74.53125 c 0.00186,-6.1875 0.1535812,-8.596749 0.337172,-5.353886 0.1835908,3.242862 0.1820741,8.305362 -0.00337,11.25 -0.18544,2.944637 -0.3356507,0.291386 -0.333797,-5.896114 z M 468.1277,59.0625 c 0,-3.867188 0.16548,-5.449219 0.36774,-3.515625 0.20226,1.933594 0.20226,5.097656 0,7.03125 -0.20226,1.933594 -0.36774,0.351562 -0.36774,-3.515625 z M 2.1826314,53.90625 c 0.00416,-3.609375 0.1736085,-4.971059 0.3765543,-3.025965 0.2029458,1.945095 0.199543,4.89822 -0.00757,6.5625 C 2.3445145,59.107066 2.178468,57.515625 2.182627,53.90625 Z M 467.15593,45 c 0,-2.835938 0.17575,-3.996094 0.39055,-2.578125 0.21481,1.417969 0.21481,3.738281 0,5.15625 -0.2148,1.417969 -0.39055,0.257812 -0.39055,-2.578125 z M 3.0934352,41.25 c 0,-2.835938 0.175749,-3.996094 0.3905533,-2.578125 0.2148044,1.417969 0.2148044,3.738281 0,5.15625 C 3.2691842,45.246094 3.0934352,44.085937 3.0934352,41.25 Z M 466.19284,33.75 c 0,-2.320313 0.18283,-3.269531 0.40628,-2.109375 0.22346,1.160156 0.22346,3.058594 0,4.21875 -0.22345,1.160156 -0.40628,0.210937 -0.40628,-2.109375 z M 3.9864219,30.46875 c 0.010405,-2.0625 0.2023915,-2.795862 0.4266352,-1.629695 0.2242436,1.166169 0.2157299,2.853669 -0.01892,3.75 C 4.1594884,33.485388 3.9760162,32.53125 3.9864219,30.46875 Z M 439.08102,31.992381 c -5.69719,-3.567272 -6.23728,-11.261331 -1.09427,-15.588895 9.0457,-7.6114482 21.09967,4.834872 13.18512,13.614282 -3.36995,3.738211 -8.05283,4.502994 -12.09085,1.974613 z m 10.21585,-3.616974 C 451.54436,26.350002 451.41663,21.104128 449.0625,18.75 444.95831,14.645814 437.5,17.670926 437.5,23.43978 c 0,6.305347 7.01854,9.241796 11.79687,4.935627 z M 440.625,27.1875 c -1.03125,-1.03125 -1.875,-2.71875 -1.875,-3.75 0,-4.622311 6.63367,-7.297102 9.69845,-3.910555 4.93334,5.451277 -2.62842,12.855587 -7.82345,7.660555 z m 6.3539,-0.52191 c 3.52373,-2.468115 2.14377,-6.97809 -2.13515,-6.97809 -4.0121,0 -5.91531,5.481177 -2.57813,7.424907 2.16685,1.262073 2.2902,1.25038 4.71328,-0.446817 z M 13.456026,28.242381 C 7.7588263,24.675109 7.2187383,16.98105 12.361756,12.653486 c 9.045693,-7.6114482 21.099666,4.834872 13.185119,13.614282 -3.369959,3.738211 -8.052836,4.502994 -12.090849,1.974613 z M 23.671875,24.625407 C 25.919363,22.600002 25.791628,17.354128 23.4375,15 19.333314,10.895814 11.875,13.920926 11.875,19.68978 c 0,6.305347 7.018543,9.241796 11.796875,4.935627 z M 15,23.4375 c -1.03125,-1.03125 -1.875,-2.71875 -1.875,-3.75 0,-4.622311 6.633667,-7.297102 9.698449,-3.910555 C 27.756788,21.228222 20.195032,28.632532 15,23.4375 Z m 6.353901,-0.52191 c 3.523727,-2.468115 2.143769,-6.97809 -2.135151,-6.97809 -4.012096,0 -5.915306,5.481177 -2.578125,7.424907 2.166847,1.262073 2.290187,1.25038 4.713276,-0.446817 z m 443.882519,1.92816 c 0.0104,-2.0625 0.2024,-2.795862 0.42664,-1.629695 0.22424,1.166169 0.21572,2.853669 -0.0189,3.75 -0.23463,0.896333 -0.41811,-0.0578 -0.4077,-2.120305 z M 4.9428413,21.5625 c 0,-2.320313 0.1828275,-3.269531 0.4062834,-2.109375 0.2234558,1.160156 0.2234558,3.058594 0,4.21875 C 5.1256688,24.832031 4.9428413,23.882812 4.9428413,21.5625 Z M 464.28,15.9375 c 0,-1.804687 0.19294,-2.542969 0.42875,-1.640625 0.2358,0.902344 0.2358,2.378906 0,3.28125 C 464.47294,18.480469 464.28,17.742187 464.28,15.9375 Z M 5.8425025,14.0625 c 0,-1.804687 0.1929331,-2.542969 0.4287402,-1.640625 0.2358071,0.902344 0.2358071,2.378906 0,3.28125 C 6.0354356,16.605469 5.8425025,15.867188 5.8425025,14.0625 Z M 463.3425,9.375 c 0,-1.8046875 0.19294,-2.5429688 0.42875,-1.640625 0.2358,0.9023438 0.2358,2.378906 0,3.28125 -0.23581,0.902344 -0.42875,0.164063 -0.42875,-1.640625 z M 6.7800025,6.5625 c 0,-1.8046875 0.1929331,-2.5429688 0.4287402,-1.640625 0.2358071,0.9023437 0.2358071,2.3789062 0,3.28125 C 6.9729356,9.1054688 6.7800025,8.3671875 6.7800025,6.5625 Z M 462.1875,2.8087085 c 0,-1.87554505 -0.39284,-1.87837997 -227.34376,-1.640625 C 109.80467,1.2990751 7.4999824,1.0898437 7.4999887,0.703125 7.4999948,0.31640625 110.01563,0 235.3125,0 H 463.125 v 2.34375 c 0,1.2890625 -0.21094,2.34375 -0.46875,2.34375 -0.25781,0 -0.46875,-0.8454562 -0.46875,-1.8787915 z"
         id="path4613"
         inkscape:connector-curvature="0" />
    </g>
  </g>
  <g id="mark"/>
</svg>
