<?xml version="1.0" encoding="UTF-8" standalone="no"?>
<!-- Created with Inkscape (http://www.inkscape.org/) -->

<svg
   xmlns:dc="http://purl.org/dc/elements/1.1/"
   xmlns:cc="http://creativecommons.org/ns#"
   xmlns:rdf="http://www.w3.org/1999/02/22-rdf-syntax-ns#"
   xmlns:svg="http://www.w3.org/2000/svg"
   xmlns="http://www.w3.org/2000/svg"
   xmlns:sodipodi="http://sodipodi.sourceforge.net/DTD/sodipodi-0.dtd"
   xmlns:inkscape="http://www.inkscape.org/namespaces/inkscape"
   width="210mm"
   height="297mm"
   viewBox="0 0 210 297"
   version="1.1"
   id="svg2525"
   inkscape:version="0.92.4 (5da689c313, 2019-01-14)"
   sodipodi:docname="sword2.svg">
  <defs
     id="defs2519" />
  <sodipodi:namedview
     id="base"
     pagecolor="#ffffff"
     bordercolor="#666666"
     borderopacity="1.0"
     inkscape:pageopacity="0.0"
     inkscape:pageshadow="2"
     inkscape:zoom="0.35"
     inkscape:cx="400"
     inkscape:cy="560"
     inkscape:document-units="mm"
     inkscape:current-layer="layer1"
     showgrid="false"
     inkscape:window-width="1366"
     inkscape:window-height="705"
     inkscape:window-x="-8"
     inkscape:window-y="-8"
     inkscape:window-maximized="1" />
  <metadata
     id="metadata2522">
    <rdf:RDF>
      <cc:Work
         rdf:about="">
        <dc:format>image/svg+xml</dc:format>
        <dc:type
           rdf:resource="http://purl.org/dc/dcmitype/StillImage" />
        <dc:title></dc:title>
      </cc:Work>
    </rdf:RDF>
  </metadata>
  <g
     inkscape:groupmode="layer"
     id="sword2"
     inkscape:label="Layer 2">
    <path
       id="path4126"
       style="fill:#000000;fill-opacity:1;stroke:#000000;stroke-width:3.52259183;stroke-linejoin:round;stroke-miterlimit:4;stroke-dasharray:none"
       d="m 260.78516,70.494141 c -2.5762,1.371474 -4.94538,1.961458 -9.17969,6.195312 -0.97769,0.975868 -2.05797,2.145416 -3.25977,3.5625 L 112.99609,239.85938 c -0.90329,1.06514 -1.69461,1.97632 -2.41601,2.77343 -0.35337,0.39058 -0.68481,0.75373 -1.00391,1.08594 -0.005,0.006 -0.009,0.012 -0.0137,0.0176 -0.31793,0.33068 -0.62011,0.62589 -0.91016,0.90234 -0.005,0.005 -0.0107,0.0122 -0.0156,0.0176 -0.29455,0.28027 -0.57545,0.52762 -0.84766,0.75586 -2.99524,2.51421 -4.82642,1.9955 -9.78906,1.14258 -4.661992,-3.75394 -9.098213,-5.77937 -11.90625,-12.00977 -0.809763,2.40182 -2.872107,4.16279 5.822266,11.86133 0.449619,0.39813 0.886067,0.78256 1.316406,1.13672 3.01232,2.47913 5.575487,3.93829 8.164058,5.35547 2.57212,1.40814 4.91934,0.60749 4.50391,0.13281 l 0.28906,0.23633 c -0.0376,0.22711 -0.0446,0.42841 -0.0527,0.58398 -10e-4,0.0278 -0.008,0.024 -0.01,0.0488 -0.006,0.13086 -0.01,0.2207 -0.01,0.2207 0,0 -1.27816,0.23892 -1.75,0.81446 -0.33541,0.40913 -0.42021,1.16708 -0.43946,1.57617 -0.002,0.0467 -0.007,0.0409 -0.008,0.0781 -0.005,0.12927 0.004,0.20313 0.004,0.20313 0,0 -1.27621,0.23891 -1.74805,0.81445 -0.3354,0.40912 -0.41611,1.1621 -0.43945,1.57617 -0.002,0.0446 -0.006,0.0426 -0.008,0.0801 -0.006,0.13087 -0.01,0.21875 -0.01,0.21875 0,0 -0.10257,0.0274 -0.12109,0.0312 0.0709,0.0676 0.14189,0.13513 0.21289,0.20313 0.14568,0.12868 0.28088,0.26919 0.42773,0.39648 0.15446,0.13605 0.30541,0.27703 0.45899,0.41406 0.15449,0.13671 0.30585,0.27583 0.45898,0.41407 0.16066,0.14577 0.32007,0.29518 0.47852,0.44336 0.15217,0.13677 0.30133,0.27461 0.44921,0.41601 0.14927,0.14389 0.29884,0.28881 0.44532,0.43555 0.14732,0.14473 0.29488,0.28805 0.43945,0.43555 0.11652,0.11748 0.23628,0.23287 0.35547,0.34765 0.14608,0.14441 0.29469,0.28592 0.4414,0.42969 0.15956,0.14835 0.3131,0.30281 0.4629,0.46094 0.0502,0.0537 0.1,0.10826 0.15039,0.16211 0.008,-0.1479 0.01,-0.24805 0.01,-0.24805 0,0 0.0882,-0.0142 0.16992,-0.0332 0.33739,-0.0781 1.20025,-0.31794 1.58008,-0.78125 0.33963,-0.41428 0.43114,-1.18379 0.45313,-1.59375 0.002,-0.035 -0.009,-0.0319 -0.008,-0.0625 0.006,-0.13086 0.0117,-0.22071 0.0117,-0.22071 0,0 0.0741,-0.01 0.16797,-0.0312 0.34926,-0.0788 1.19644,-0.31196 1.56836,-0.76562 0.47184,-0.57555 0.45508,-1.875 0.45508,-1.875 0,0 0.0863,-0.0142 0.16797,-0.0332 0.2243,-0.0519 0.65449,-0.17013 1.05859,-0.38476 l 0.16992,0.13867 c -0.54693,-0.31429 -0.88909,2.12895 0.9961,4.375 1.89728,2.26046 3.82985,4.48936 6.85156,6.95703 0.43146,0.35281 0.89449,0.70554 1.37305,1.06836 9.25402,7.01589 10.57508,4.64589 12.77148,3.38086 -6.66705,-1.53336 -9.52323,-5.49293 -14.12695,-9.33203 -2.63203,-6.83496 -3.26512,-7.3261 3.62305,-16.01953 L 253.64062,84.591797 c 6.15414,-7.767169 6.11111,-10.657514 7.14454,-14.097656 z" />
    <path
       id="path4108"
       style="fill:#483c15;fill-opacity:1;stroke:none;stroke-width:0.70451838"
       d="m 107.89258,251.75 c -0.30692,0.003 -0.96643,0.0625 -1.32031,0.49414 -0.47184,0.57554 -0.45508,1.87695 -0.45508,1.87695 0,0 -1.27816,0.23891 -1.75,0.81446 -0.47184,0.57554 -0.44141,1.85742 -0.44141,1.85742 0,0 -1.27816,0.23891 -1.75,0.81445 -0.47184,0.57554 -0.45508,1.8769 -0.45508,1.87696 0,0 -0.10259,0.0276 -0.12109,0.0312 0.0703,0.067 0.14061,0.13382 0.21094,0.20118 0.14568,0.12868 0.28088,0.26919 0.42773,0.39648 0.15446,0.13605 0.30541,0.27703 0.45899,0.41406 0.15449,0.13671 0.30585,0.27583 0.45898,0.41407 0.16066,0.14577 0.32007,0.29518 0.47852,0.44336 0.15217,0.13677 0.30133,0.27461 0.44921,0.41601 0.14927,0.14389 0.29884,0.28881 0.44532,0.43555 0.14732,0.14473 0.29488,0.28805 0.43945,0.43555 0.11652,0.11748 0.23628,0.23287 0.35547,0.34765 0.14608,0.14441 0.29468,0.28592 0.4414,0.42969 0.15956,0.14835 0.3131,0.30281 0.4629,0.46094 0.0468,0.05 0.0937,0.10025 0.14062,0.15039 0.002,-0.0543 0.0215,-0.23633 0.0215,-0.23633 0,0 1.27621,-0.23891 1.74805,-0.81445 0.47183,-0.57554 0.45703,-1.87696 0.45703,-1.87696 0,0 1.26254,-0.22133 1.73438,-0.79687 0.47184,-0.57554 0.45703,-1.875 0.45703,-1.875 0,0 1.27816,-0.23892 1.75,-0.81446 0.47184,-0.57555 0.44141,-1.85937 0.44141,-1.85937 l -0.64844,-0.5293 -3.625,-2.97461 -0.64844,-0.52929 c 0,0 -0.0618,-0.005 -0.16406,-0.004 z" />
    <path
       id="path4110"
       style="color:#000000;font-style:normal;font-variant:normal;font-weight:normal;font-stretch:normal;font-size:medium;line-height:normal;font-family:Sans;-inkscape-font-specification:Sans;text-indent:0;text-align:start;text-decoration:none;text-decoration-line:none;letter-spacing:normal;word-spacing:normal;text-transform:none;writing-mode:lr-tb;direction:ltr;baseline-shift:baseline;text-anchor:start;display:inline;overflow:visible;visibility:visible;fill:#000000;fill-opacity:1;stroke:none;stroke-width:0.35225919;marker:none;enable-background:accumulate"
       d="m 106.13672,253.85156 c -0.008,0.1536 -0.0195,0.26953 -0.0195,0.26953 0,0 -0.0817,0.0289 -0.15235,0.0449 l 4.80078,4.5625 c 0.008,-0.15359 0.0215,-0.26758 0.0215,-0.26758 0,0 0.0863,-0.0142 0.16797,-0.0332 z m -2.20703,2.66016 c -0.008,0.1664 -0.004,0.28125 -0.004,0.28125 0,0 -0.0862,0.0143 -0.16797,0.0332 l 4.83399,4.58985 c 0.009,-0.15957 0.002,-0.28321 0.002,-0.28321 0,0 0.076,-0.01 0.16992,-0.0312 z m -2.19141,2.67187 c -0.009,0.16842 -0.0176,0.29883 -0.0176,0.29883 0,0 -0.0667,0.0128 -0.1289,0.0254 0.0729,0.0695 0.14575,0.13908 0.21875,0.20899 0.14568,0.12868 0.28088,0.26919 0.42773,0.39648 0.15446,0.13605 0.30541,0.27703 0.45899,0.41406 0.15449,0.13671 0.30585,0.27583 0.45898,0.41407 0.16066,0.14577 0.32007,0.29518 0.47852,0.44336 0.15217,0.13677 0.30133,0.27461 0.44921,0.41601 0.14927,0.14389 0.29884,0.28881 0.44532,0.43555 0.14732,0.14473 0.29488,0.28805 0.43945,0.43555 0.11652,0.11748 0.23628,0.23287 0.35547,0.34765 0.14608,0.14441 0.29468,0.28592 0.4414,0.42969 0.15956,0.14835 0.3131,0.30281 0.4629,0.46094 0.0528,0.0564 0.10527,0.11338 0.1582,0.16992 0.005,-0.14245 0.002,-0.25586 0.002,-0.25586 0,0 0.0882,-0.0142 0.16992,-0.0332 z" />
    <path
       id="path4114"
       style="fill:#ffffff;fill-opacity:1;stroke:none;stroke-width:0.70451838"
       d="m 260.78125,70.482422 c -3.1707,1.687963 -6.02208,2.221523 -12.43164,9.779297 L 113,239.85547 c -7.17391,8.45906 -7.77966,7.94764 -14.998047,6.70703 l 22.039067,18.06836 c -2.63203,-6.83496 -3.25327,-7.33001 3.63476,-16.02344 L 253.63086,84.589844 c 6.15414,-7.767169 6.11696,-10.66728 7.15039,-14.107422 z" />
    <path
       id="path4116"
       d="m 120.02279,269.50596 c 0.43145,0.3528 0.8944,0.70583 1.37297,1.06865 9.25401,7.01589 10.57534,4.64675 12.77174,3.38171 -6.80034,-1.56401 -9.63043,-5.64615 -14.39994,-9.55629 l -7.59356,-6.22536 c -0.54694,-0.31428 -0.8888,2.12946 0.9964,4.37551 1.89728,2.26046 3.83067,4.48811 6.85239,6.95578 z"
       style="fill:#393a2e;fill-opacity:1;stroke:none;stroke-width:0.70451838"
       inkscape:connector-curvature="0" />
    <path
       id="path4118"
       style="fill:#6f7161;fill-opacity:1;stroke:none;stroke-width:0.70451838"
       d="m 86.085938,234.53906 c -0.809764,2.40182 -2.874061,4.16083 5.820312,11.85938 0.449619,0.39812 0.88802,0.78256 1.318359,1.13672 3.01232,2.47913 5.575429,3.93829 8.164061,5.35546 2.57212,1.40815 4.91739,0.6075 4.50195,0.13282 l -7.60937,-6.23828 c -4.769514,-3.91014 -9.328145,-5.8845 -12.195312,-12.2461 z" />
    <path
       id="path4120"
       style="color:#000000;display:inline;overflow:visible;visibility:visible;fill:#d0d0cd;fill-opacity:1;stroke:none;stroke-width:0.21135552;marker:none;enable-background:accumulate"
       d="m 260.78516,70.494141 c -3.17071,1.687963 -6.0299,2.200038 -12.43946,9.757812 L 112.99609,239.85938 c -7.1739,8.45903 -7.7777,7.93592 -14.99609,6.69531 l 12.03516,9.86719 150.63672,-185.509771 c 0.0393,-0.139714 0.0708,-0.276814 0.11328,-0.417968 z" />
    <path
       sodipodi:nodetypes="csscc"
       inkscape:connector-curvature="0"
       id="path4122"
       d="m 118.35229,242.98142 c -0.43135,-1.26256 -2.0362,-1.52432 3.67637,-8.37369 l 80.21142,-96.17345 c 4.28349,-5.13591 6.99622,-7.68582 9.24124,-9.04982 z"
       style="fill:#ffffff;fill-opacity:1;stroke:none;stroke-width:0.70451838" />
    <path
       sodipodi:nodetypes="csccc"
       inkscape:connector-curvature="0"
       id="path4124"
       d="m 110.3767,256.24004 97.28989,-119.56327 c 2.60375,-3.19989 2.74061,-5.07924 3.82086,-7.23034 l -98.75614,121.09286 c 0.56759,1.21242 -2.19697,4.76494 -2.35461,5.70075 z"
       style="fill:#d0d0cd;fill-opacity:1;stroke:none;stroke-width:0.70451838" />
  </g>
  <g id="mark"/>
</svg>
