<?xml version="1.0" encoding="UTF-8" standalone="no"?>
<!-- Created with Inkscape (http://www.inkscape.org/) -->

<svg
   xmlns:dc="http://purl.org/dc/elements/1.1/"
   xmlns:cc="http://creativecommons.org/ns#"
   xmlns:rdf="http://www.w3.org/1999/02/22-rdf-syntax-ns#"
   xmlns:svg="http://www.w3.org/2000/svg"
   xmlns="http://www.w3.org/2000/svg"
   xmlns:sodipodi="http://sodipodi.sourceforge.net/DTD/sodipodi-0.dtd"
   xmlns:inkscape="http://www.inkscape.org/namespaces/inkscape"
   width="210mm"
   height="297mm"
   viewBox="0 0 210 297"
   version="1.1"
   id="svg1554"
   inkscape:version="0.92.4 (5da689c313, 2019-01-14)"
   sodipodi:docname="helmet3.svg">
  <defs
     id="defs1548" />
  <sodipodi:namedview
     id="base"
     pagecolor="#ffffff"
     bordercolor="#666666"
     borderopacity="1.0"
     inkscape:pageopacity="0.0"
     inkscape:pageshadow="2"
     inkscape:zoom="0.35"
     inkscape:cx="400"
     inkscape:cy="560"
     inkscape:document-units="mm"
     inkscape:current-layer="layer1"
     showgrid="false"
     inkscape:window-width="1366"
     inkscape:window-height="705"
     inkscape:window-x="-8"
     inkscape:window-y="-8"
     inkscape:window-maximized="1" />
  <metadata
     id="metadata1551">
    <rdf:RDF>
      <cc:Work
         rdf:about="">
        <dc:format>image/svg+xml</dc:format>
        <dc:type
           rdf:resource="http://purl.org/dc/dcmitype/StillImage" />
        <dc:title></dc:title>
      </cc:Work>
    </rdf:RDF>
  </metadata>
  <g
     inkscape:groupmode="layer"
     id="helmet3"
     inkscape:label="Layer 2">
    <g
       transform="matrix(-0.18863875,0,0,0.19185975,240.56842,-71.107679)"
       id="1234"
       inkscape:label="1234">
      <g
         id="g3677"
         transform="matrix(2.1157,0,0,2.0881,-140.06,-990.91)">
        <path
           inkscape:connector-curvature="0"
           id="path2890"
           style="fill:#000000;stroke:#000000;stroke-width:1px"
           d="m 122,745.36 10,-9 14,-2 15,1 19,4 19,6 17,8 17,10 21,14 18,17 15,15 16,12 15,12 14,8 16,3 14,-2 18,-10 14,-10 12,-15 11,-10 13,-14 10,-12 8,-12 4,-8 7,-2 8,2 7,3 v 7 l -10,15 -9,17 -12,17 -6,12 -10,11 -9,7 -15,7 -7,4 -7,6 -9,5 -14,5 -19,4 -17,2 -12,-1 -14,-5 -34,-13 -18,-8 -13,-5 -13,-5 -11,-7 -8,-3 -9,-3 -11,-7 -18,-16 -16,-18 -14,-15 -8,-10 z" />
        <g
           id="g3672"
           transform="translate(-450.25,236.06)">
          <path
             inkscape:connector-curvature="0"
             id="path2892"
             sodipodi:nodetypes="cccccccccccccccaccccccccccaacccccccccccc"
             style="fill:#000000;stroke:#000000;stroke-width:1px"
             d="m 902,514.36 -17,-8 -14,-5 -15,-5 -6,-9 -8,-8 -10,-7 -16,-6 -17,-4 -21,-3 -17,-1 -21,-1 -18,2 -13,2 -14,4 c 0,0 -7.7237,2.1546 -11.25,4 -3.5448,1.8551 -9.75,7 -9.75,7 l -7,9 -16,2 -22,5 -11,3 -9,3 17,3 22,6 23,11 16,9 c 0,0 13.273,7.8918 19,13 4.9376,4.4043 8.3423,10.301 13,15 5.3199,5.3674 17,15 17,15 l 15,15 22,13 16,8 17,2 16,-7 17,-13 18,-16 12,-14 11,-14 12,-13 z" />
          <path
             inkscape:connector-curvature="0"
             id="path2894"
             style="fill:#d0a10a;fill-opacity:0.35523999;stroke:#d0a10a;stroke-width:3"
             d="m 608.9,498.94 18.385,-6.364 15.556,-2.8284 13.435,-2.1213 9.8995,-0.7071" />
          <path
             inkscape:connector-curvature="0"
             id="path3668"
             style="fill:#ffc400;fill-opacity:0.86667002;stroke:#d0a10a;stroke-width:3"
             d="m 856.82,496.33 15.556,4.2426 12.728,4.9498 9.8995,4.9498 7.0711,4.2426" />
        </g>
        <path
           inkscape:connector-curvature="0"
           id="path3670"
           sodipodi:nodetypes="cacccccccccccccccccccccccccccccc"
           style="fill:none;stroke:#d0a10a;stroke-width:3"
           d="m 122.13,743.84 c 0,0 5.1021,-4.836 8.2029,-6.3801 3.6614,-1.8232 11.849,-3.19 11.849,-3.19 l 15.494,0.91144 17.317,2.7343 18.229,4.5572 20.052,9.1144 11.849,6.3801 15.494,10.026 14.583,10.026 13.672,12.76 11.849,12.76 14.127,11.849 12.304,9.1144 10.937,8.2029 11.849,6.3801 14.583,3.6457 10.937,-0.91143 14.127,-4.5572 11.393,-6.3801 12.304,-9.1144 8.6587,-9.1144 10.937,-10.937 9.1144,-10.026 9.1144,-10.937 9.1144,-9.5701 6.38,-9.1144 3.6458,-9.5701 5.4686,-2.7343 h 7.2915 l 6.3801,1.8229 5.9244,5.0129" />
      </g>
    </g>
  </g>
  <g id="mark"/>
</svg>
