<?xml version="1.0" encoding="UTF-8" standalone="no"?>
<!-- Created with Inkscape (http://www.inkscape.org/) -->

<svg
   xmlns:dc="http://purl.org/dc/elements/1.1/"
   xmlns:cc="http://creativecommons.org/ns#"
   xmlns:rdf="http://www.w3.org/1999/02/22-rdf-syntax-ns#"
   xmlns:svg="http://www.w3.org/2000/svg"
   xmlns="http://www.w3.org/2000/svg"
   xmlns:sodipodi="http://sodipodi.sourceforge.net/DTD/sodipodi-0.dtd"
   xmlns:inkscape="http://www.inkscape.org/namespaces/inkscape"
   width="210mm"
   height="297mm"
   viewBox="0 0 210 297"
   version="1.1"
   id="svg1822"
   inkscape:version="0.92.4 (5da689c313, 2019-01-14)"
   sodipodi:docname="sword1.svg">
  <defs
     id="defs1816" />
  <sodipodi:namedview
     id="base"
     pagecolor="#ffffff"
     bordercolor="#666666"
     borderopacity="1.0"
     inkscape:pageopacity="0.0"
     inkscape:pageshadow="2"
     inkscape:zoom="0.35"
     inkscape:cx="400"
     inkscape:cy="560"
     inkscape:document-units="mm"
     inkscape:current-layer="layer1"
     showgrid="false"
     inkscape:window-width="1366"
     inkscape:window-height="705"
     inkscape:window-x="-8"
     inkscape:window-y="-8"
     inkscape:window-maximized="1" />
  <metadata
     id="metadata1819">
    <rdf:RDF>
      <cc:Work
         rdf:about="">
        <dc:format>image/svg+xml</dc:format>
        <dc:type
           rdf:resource="http://purl.org/dc/dcmitype/StillImage" />
        <dc:title></dc:title>
      </cc:Work>
    </rdf:RDF>
  </metadata>
  <g
     inkscape:groupmode="layer"
     id="sword1"
     inkscape:label="Layer 2">
    <path
       id="path4126"
       style="fill:#000000;fill-opacity:1;stroke:#000000;stroke-width:4.09725761;stroke-linejoin:round;stroke-miterlimit:4;stroke-dasharray:none"
       d="m 257,30.947266 c -1.93774,0.09453 -3.79672,1.118928 -4.87891,2.902343 -0.69675,1.148244 -0.95502,2.437006 -0.82617,3.632813 0.048,0.445068 0.17913,0.824303 0.30664,1.173828 -0.45952,0.205718 -1.10853,0.543603 -1.39258,1.011719 -0.44907,0.740054 -0.20507,2.21289 -0.20507,2.21289 0,0 -0.0951,0.03869 -0.23633,0.0957 -0.0266,0.01139 -0.0191,0.01689 -0.0488,0.0293 -0.43822,0.180346 -1.2697,0.562377 -1.5957,1.09961 -0.44906,0.740054 -0.2168,2.234375 -0.2168,2.234375 0,0 -0.0846,0.01929 -0.22461,0.07422 -0.0271,0.0105 -0.0171,0.01683 -0.0488,0.0293 -0.43438,0.174021 -1.26971,0.562376 -1.5957,1.09961 -0.44907,0.740054 -0.2168,2.234375 -0.2168,2.234375 0,0 -0.097,0.03869 -0.23828,0.0957 -0.0179,0.0071 -0.0161,1.42e-4 -0.0352,0.0078 -0.43334,0.176999 -1.27741,0.577226 -1.60743,1.121094 -0.44907,0.740054 -0.20511,2.212891 -0.20507,2.212891 0,0 -0.0971,0.03869 -0.23829,0.0957 -0.0179,0.0071 -0.0161,1.41e-4 -0.0352,0.0078 -0.43334,0.177 -1.2774,0.577226 -1.60742,1.121094 -0.44907,0.740054 -0.21875,2.234375 -0.21875,2.234375 0,0 -0.0846,0.01734 -0.22461,0.07227 -0.0187,0.0068 -0.0149,0.0018 -0.0352,0.0098 -0.42954,0.170729 -1.2774,0.575273 -1.60742,1.119141 -0.44906,0.740054 -0.2168,2.234375 -0.2168,2.234375 0,0 -1.43374,0.486509 -1.88281,1.226563 -0.44907,0.740054 -0.20313,2.210937 -0.20313,2.210937 0,0 -1.43374,0.484555 -1.88281,1.224609 -0.44907,0.740054 -0.2168,2.234375 -0.2168,2.234375 0,0 -1.41811,0.463071 -1.86718,1.203125 -0.44906,0.740054 -0.21875,2.234375 -0.21875,2.234375 0,0 -0.0948,0.04535 -0.20313,0.08789 -0.39582,0.155276 -1.32522,0.555777 -1.67773,1.136719 -0.32325,0.532701 -0.30548,1.440835 -0.25977,1.910156 0.004,0.04288 0.012,0.03507 0.0176,0.07031 0.0159,0.149602 0.0371,0.232421 0.0371,0.232421 0,0 -0.0928,0.0434 -0.20117,0.08594 -0.39582,0.155275 -1.32718,0.557731 -1.67969,1.138672 -0.44907,0.740054 -0.2168,2.234375 -0.2168,2.234375 0,0 -0.0849,0.02469 -0.18945,0.06445 -0.38928,0.147936 -1.32572,0.555334 -1.67969,1.138672 -0.44907,0.740054 -0.21679,2.234375 -0.21679,2.234375 0,0 -0.0985,0.02927 -0.18946,0.06445 -0.37574,0.145141 -1.3299,0.564411 -1.6914,1.160156 -0.44906,0.740054 -0.20508,2.212891 -0.20508,2.212891 0,0 -0.0985,0.02927 -0.18945,0.06445 -0.37577,0.14514 -1.32991,0.564411 -1.69141,1.160156 -0.32323,0.532694 -0.30162,1.432521 -0.25977,1.908203 0.004,0.04063 0.0114,0.035 0.0156,0.07031 0.0147,0.151654 0.0254,0.255859 0.0254,0.255859 0,0 -0.0849,0.02469 -0.18945,0.06445 -0.38928,0.147935 -1.32377,0.553381 -1.67774,1.136719 -0.44907,0.740053 -0.21875,2.234375 -0.21875,2.234375 0,0 -0.0965,0.03123 -0.1875,0.06641 -0.24979,0.09649 -0.72413,0.303837 -1.1543,0.617188 l -0.21875,-0.132813 c 0.6813,0.272319 0.67358,-2.597387 -1.86523,-4.875 -2.55509,-2.292228 -5.14543,-4.542027 -9.0293,-6.888672 -0.55463,-0.33559 -1.14534,-0.664498 -1.75586,-1.003906 -11.80568,-6.563214 -12.93966,-3.619267 -15.26172,-1.802734 7.9286,0.673601 11.86662,4.766829 17.79688,8.433594 4.15054,7.439605 4.95897,7.899872 -1.54883,19.039062 l -12.17773,20.8457 c 0.0596,0.13492 0.12093,0.26909 0.17968,0.4043 0.11063,0.26596 0.23031,0.52801 0.34766,0.79102 0.12624,0.28271 0.25529,0.56448 0.38477,0.8457 0.1227,0.25976 0.24722,0.51918 0.36914,0.7793 0.11109,0.23469 0.2207,0.46849 0.33593,0.70117 0.12345,0.25739 0.25424,0.51275 0.38282,0.76758 0.13513,0.26748 0.26643,0.53667 0.39648,0.80664 0.11335,0.24601 0.23394,0.48845 0.35156,0.73242 0.10678,0.22534 0.21327,0.45151 0.32227,0.67578 0.10009,0.20144 0.19671,0.40409 0.30078,0.60351 0.10454,0.20065 0.21078,0.40056 0.31836,0.59961 0.10487,0.20084 0.21216,0.39948 0.31836,0.59961 0.0995,0.18958 0.20039,0.37835 0.30273,0.56641 0.10212,0.18255 0.19925,0.36774 0.29688,0.55273 0.0961,0.18194 0.19229,0.36523 0.28516,0.54883 0.0905,0.17798 0.18101,0.3542 0.26953,0.53321 0.0964,0.18823 0.1912,0.37692 0.28515,0.5664 0.13127,0.26035 0.25271,0.52641 0.375,0.79102 0.11561,0.25678 0.23429,0.51263 0.34961,0.76953 0.1094,0.24029 0.21736,0.48015 0.32617,0.7207 0.11549,0.25685 0.23304,0.51395 0.35547,0.76758 0.14776,0.31079 0.3008,0.61819 0.45508,0.92578 0.14917,0.29857 0.30368,0.59432 0.46094,0.88867 0.0329,0.0613 0.0662,0.12249 0.0996,0.1836 l 18.03515,-28.63868 c 0.86569,-1.37452 1.62798,-2.55181 2.32813,-3.58789 0.34294,-0.50765 0.66537,-0.97923 0.97852,-1.41406 0.005,-0.007 0.008,-0.0141 0.0137,-0.0215 0.31193,-0.43287 0.61167,-0.82555 0.90039,-1.19141 0.005,-0.007 0.008,-0.0144 0.0137,-0.0215 0.29328,-0.37101 0.57744,-0.70235 0.85351,-1.00977 3.0373,-3.38587 5.23152,-3.08721 11.08594,-2.91797 5.98343,3.55915 11.4216,5.16431 15.67578,11.87891 0.53904,-2.89845 2.62853,-5.26408 -8.64453,-12.70508 -0.58297,-0.3848 -1.14955,-0.7564 -1.70312,-1.093749 -3.87493,-2.361374 -7.06622,-3.620224 -10.2793,-4.828125 -3.19257,-1.200198 -5.76317,0.105423 -5.20703,0.583984 l -0.37305,-0.226562 c 0.006,-0.267691 -0.019,-0.499217 -0.0352,-0.679688 -0.003,-0.03227 0.006,-0.02977 0.004,-0.05859 -0.0147,-0.151655 -0.0254,-0.253906 -0.0254,-0.253906 0,0 1.43375,-0.484556 1.88281,-1.224609 0.31922,-0.526067 0.29094,-1.412476 0.2461,-1.886719 -0.005,-0.0541 0.001,-0.0508 -0.004,-0.09375 -0.0159,-0.149602 -0.0391,-0.232422 -0.0391,-0.232422 0,0 1.43375,-0.484562 1.88281,-1.224609 0.31922,-0.526067 0.28706,-1.406079 0.2461,-1.886719 -0.004,-0.05177 0.001,-0.04826 -0.004,-0.0918 -0.0147,-0.151655 -0.0254,-0.255859 -0.0254,-0.255859 0,0 1.41813,-0.463071 1.86719,-1.203125 0.31922,-0.526067 0.289,-1.40608 0.24804,-1.886719 -0.004,-0.05177 0.001,-0.04826 -0.004,-0.0918 -0.0147,-0.151654 -0.0254,-0.255859 -0.0254,-0.255859 0,0 1.4318,-0.484556 1.88086,-1.22461 0.326,-0.537234 0.2845,-1.456226 0.23828,-1.921875 -0.003,-0.02804 0.007,-0.0326 0.004,-0.05664 -0.0159,-0.149601 -0.0371,-0.234375 -0.0371,-0.234375 0,0 1.43179,-0.484556 1.88086,-1.22461 0.31519,-0.519433 0.27238,-1.380162 0.23243,-1.865234 -0.005,-0.06338 0.01,-0.06154 0.01,-0.113281 -0.0147,-0.151654 -0.0254,-0.25586 -0.0254,-0.25586 0,0 1.42007,-0.461119 1.86914,-1.201172 0.44906,-0.740054 0.2168,-2.234375 0.2168,-2.234375 0,0 1.4318,-0.484556 1.88086,-1.224609 0.30842,-0.508266 0.28426,-1.345177 0.24218,-1.830078 -0.007,-0.08551 0.008,-0.0887 0.002,-0.150391 -0.0159,-0.149602 -0.0391,-0.232422 -0.0391,-0.232422 0,0 1.43179,-0.484555 1.88086,-1.224609 0.30841,-0.508265 0.28034,-1.338704 0.24219,-1.830078 -0.006,-0.08249 0.003,-0.08666 0,-0.150391 -0.0147,-0.151655 -0.0234,-0.253906 -0.0234,-0.253906 0,0 1.41812,-0.463071 1.86719,-1.203125 0.30842,-0.508265 0.28034,-1.338704 0.24219,-1.830078 -0.006,-0.08248 0.003,-0.08667 0,-0.150391 -0.0147,-0.151655 -0.0254,-0.253906 -0.0254,-0.253906 0,0 1.43374,-0.484556 1.88281,-1.224609 0.30164,-0.497092 0.29,-1.305161 0.25,-1.794922 -0.009,-0.104995 0.001,-0.114007 -0.008,-0.185547 -0.0159,-0.149602 -0.0391,-0.232422 -0.0391,-0.232422 0,0 1.43179,-0.484555 1.88086,-1.224609 0.30163,-0.497091 0.28802,-1.298674 0.25195,-1.794922 -0.007,-0.101596 -0.002,-0.109144 -0.008,-0.183594 -0.0147,-0.151654 -0.0254,-0.255859 -0.0254,-0.255859 0,0 1.41811,-0.463071 1.86718,-1.203125 0.30163,-0.497092 0.28803,-1.298674 0.25196,-1.794922 -0.007,-0.101596 -0.004,-0.109145 -0.01,-0.183594 -0.0147,-0.151654 -0.0234,-0.255859 -0.0234,-0.255859 0,0 1.4318,-0.484556 1.88086,-1.22461 0.30841,-0.508259 0.28426,-1.34517 0.24219,-1.830078 -0.008,-0.07629 0.007,-0.09443 0,-0.148437 -0.0159,-0.149601 -0.0391,-0.232422 -0.0391,-0.232422 0,0 1.43374,-0.484556 1.88281,-1.22461 0.31921,-0.526067 0.28705,-1.408033 0.24609,-1.888671 -0.004,-0.04332 9.9e-4,-0.05671 -0.004,-0.0918 -0.0147,-0.151654 -0.0254,-0.253907 -0.0254,-0.253907 0,0 1.42008,-0.463071 1.86914,-1.203125 0.33064,-0.544876 0.39669,-1.502244 0.42187,-2.080078 0.41478,-0.03746 0.81277,-0.09694 1.20508,-0.257812 1.15378,-0.473604 2.17043,-1.304881 2.86719,-2.453125 1.73148,-2.853463 0.82221,-6.57125 -2.03125,-8.302735 -1.0687,-0.649218 -2.26118,-0.927814 -3.42383,-0.871093 z m 0.19336,3.185546 c 0.53791,-0.02786 1.08702,0.100019 1.58203,0.400391 1.32002,0.800996 1.73647,2.519468 0.92578,3.855469 -0.32623,0.537627 -0.79912,0.942279 -1.33594,1.166016 -0.4716,0.19657 -0.98756,0.135954 -1.5,0.199218 -0.67721,0.08361 -1.40139,0.706386 -2.41601,1.859375 0.57995,-1.498987 0.73402,-2.449195 0.50781,-3.107422 -0.13778,-0.400939 -0.37481,-0.752775 -0.43164,-1.310547 -0.0568,-0.557757 0.0761,-1.163545 0.40234,-1.701171 0.50669,-0.835001 1.36912,-1.314898 2.26563,-1.361329 z" />
    <path
       sodipodi:nodetypes="cscscscscscscscscscscscscscscscsccccscscscscscscscscscscscscscscscscc"
       inkscape:connector-curvature="0"
       id="path4108"
       d="m 252.09,38.443683 c 0,0 -1.43233,0.484652 -1.88139,1.224706 -0.44907,0.740053 -0.20427,2.212431 -0.20427,2.212431 0,0 -1.43232,0.484652 -1.88139,1.224706 -0.44907,0.740054 -0.21755,2.234324 -0.21755,2.234324 0,0 -1.41905,0.462767 -1.86811,1.202813 -0.44907,0.740054 -0.21755,2.234325 -0.21755,2.234325 0,0 -1.43233,0.484651 -1.88139,1.224705 -0.44907,0.740054 -0.20427,2.212432 -0.20427,2.212432 0,0 -1.43233,0.484652 -1.88139,1.224706 -0.44907,0.740053 -0.21756,2.234324 -0.21756,2.234324 0,0 -1.41904,0.462759 -1.8681,1.202813 -0.44907,0.740054 -0.21756,2.234324 -0.21756,2.234324 0,0 -1.43232,0.484652 -1.88139,1.224706 -0.44906,0.740054 -0.20427,2.212432 -0.20427,2.212432 0,0 -1.43232,0.484652 -1.88139,1.224705 -0.44906,0.740054 -0.21755,2.234325 -0.21755,2.234325 0,0 -1.41904,0.462759 -1.86811,1.202813 -0.44906,0.740053 -0.21755,2.234324 -0.21755,2.234324 0,0 -1.43232,0.484652 -1.88139,1.224706 -0.44906,0.740053 -0.20427,2.212431 -0.20427,2.212431 0,0 -1.43232,0.484652 -1.88139,1.224706 -0.44906,0.740054 -0.21755,2.234324 -0.21755,2.234324 0,0 -1.41904,0.46276 -1.86811,1.202813 -0.44906,0.740054 -0.21755,2.234325 -0.21755,2.234325 0,0 -1.43233,0.484652 -1.88139,1.224705 -0.44907,0.740054 -0.20427,2.212432 -0.20427,2.212432 0,0 -1.43233,0.484652 -1.88139,1.224706 -0.44906,0.740046 -0.21755,2.234324 -0.21755,2.234324 0,0 -1.41905,0.462759 -1.86811,1.202813 -0.44907,0.740054 -0.21755,2.234324 -0.21755,2.234324 0,0 -1.43233,0.484652 -1.88139,1.224706 -0.44907,0.740054 -0.20427,2.212432 -0.20427,2.212432 l 0.83192,0.504809 4.66312,2.829589 0.83192,0.504809 c 0,0 1.17992,-0.06869 1.62898,-0.808746 0.44907,-0.740054 0.21756,-2.234324 0.21756,-2.234324 0,0 1.43232,-0.484652 1.88139,-1.224706 0.44906,-0.740054 0.20427,-2.212432 0.20427,-2.212432 0,0 1.43232,-0.484659 1.88139,-1.224706 0.44906,-0.740053 0.21755,-2.234324 0.21755,-2.234324 0,0 1.41904,-0.462759 1.86811,-1.202813 0.44906,-0.740054 0.21755,-2.234324 0.21755,-2.234324 0,0 1.43232,-0.484652 1.88139,-1.224706 0.44906,-0.740054 0.20427,-2.212432 0.20427,-2.212432 0,0 1.43232,-0.484651 1.88139,-1.224705 0.44906,-0.740054 0.21755,-2.234324 0.21755,-2.234324 0,0 1.41904,-0.46276 1.86811,-1.202814 0.44906,-0.740053 0.21755,-2.234324 0.21755,-2.234324 0,0 1.43233,-0.484652 1.88139,-1.224706 0.44907,-0.740053 0.20427,-2.212431 0.20427,-2.212431 0,0 1.43233,-0.484652 1.88139,-1.224706 0.44907,-0.740054 0.21755,-2.234324 0.21755,-2.234324 0,0 1.41904,-0.462759 1.86811,-1.202813 0.44907,-0.740054 0.21755,-2.234325 0.21755,-2.234325 0,0 1.43233,-0.484651 1.88139,-1.224705 0.44907,-0.740054 0.20427,-2.212432 0.20427,-2.212432 0,0 1.43233,-0.484652 1.88139,-1.224706 0.44907,-0.740053 0.21756,-2.234324 0.21756,-2.234324 0,0 1.41904,-0.462759 1.8681,-1.202813 0.44907,-0.740054 0.21756,-2.234324 0.21756,-2.234324 0,0 1.43232,-0.484652 1.88139,-1.224706 0.44906,-0.740047 0.20427,-2.212432 0.20427,-2.212432 0,0 1.43232,-0.484652 1.88139,-1.224705 0.44906,-0.740054 0.21755,-2.234325 0.21755,-2.234325 0,0 1.41904,-0.462759 1.86811,-1.202813 0.44906,-0.740053 0.45667,-2.628391 0.45667,-2.628391 -3.7325,0.846696 -4.7085,-0.123427 -6.32696,-3.839207 z"
       style="fill:#483c15;fill-opacity:1;stroke:none;stroke-width:0.81945151" />
    <path
       id="path4110"
       d="m 249.97458,41.683042 c 0.013,0.111096 0.0298,0.197778 0.0298,0.197778 0,0 -0.12069,0.05783 -0.28609,0.125935 l 6.41548,4.581857 c -0.0177,-0.261362 -0.0416,-0.474518 -0.0416,-0.474518 0,0 0.0548,-0.01187 0.0704,-0.01722 z m -2.08566,3.437138 c 0.0124,0.115807 0.0165,0.21967 0.0165,0.21967 0,0 -0.10886,0.03833 -0.27281,0.104042 l 6.41548,4.581858 c -0.0197,-0.257972 -0.0548,-0.452626 -0.0548,-0.452626 0,0 0.0622,-0.03145 0.0836,-0.03907 l -6.18795,-4.413836 z m -2.08565,3.437137 c 0.0123,0.115808 0.0165,0.219671 0.0165,0.219671 0,0 -0.1165,0.04019 -0.27281,0.104042 l 6.39359,4.568573 c -0.0176,-0.242545 -0.0329,-0.439341 -0.0329,-0.439341 0,0 0.0622,-0.03145 0.0836,-0.03907 l -6.18795,-4.413836 z m -2.10752,3.423874 c 0.0159,0.149602 0.0384,0.232955 0.0384,0.232955 0,0 -0.1165,0.04019 -0.27281,0.104042 l 6.3936,4.568573 c -0.0176,-0.242544 -0.0329,-0.439341 -0.0329,-0.439341 0,0 0.0591,-0.03057 0.0836,-0.03907 l -6.20984,-4.427121 z m -2.08566,3.437138 c 0.0147,0.151654 0.0251,0.254847 0.0251,0.254847 0,0 -0.10461,0.02059 -0.25953,0.08215 l 6.3936,4.568573 c -0.0196,-0.239378 -0.0462,-0.417449 -0.0462,-0.417449 0,0 0.0788,-0.033 0.11878,-0.04774 l -6.23174,-4.440405 z m -2.08566,3.437137 c 0.0147,0.151655 0.0251,0.254848 0.0251,0.254848 0,0 -0.0964,0.03842 -0.23763,0.09543 l 6.3498,4.542004 c -0.0174,-0.224086 -0.0243,-0.404164 -0.0243,-0.404164 0,0 0.0788,-0.033 0.11878,-0.04774 l -6.23174,-4.440404 z m -2.10752,3.423874 c 0.0169,0.165873 0.047,0.268132 0.047,0.268132 0,0 -0.0964,0.03842 -0.23763,0.09543 l 6.34981,4.542004 c -0.0174,-0.224085 -0.0243,-0.404164 -0.0243,-0.404164 0,0 0.0728,-0.03124 0.11879,-0.04774 l -6.25363,-4.453689 z m -2.08566,3.437138 c 0.0155,0.168135 0.0337,0.290024 0.0337,0.290024 0,0 -0.0843,0.01861 -0.22435,0.07354 l 6.34981,4.542004 c -0.0192,-0.221136 -0.0376,-0.382272 -0.0376,-0.382272 0,0 0.0905,-0.03248 0.15399,-0.05633 z m -2.08566,3.437137 c 0.0156,0.168135 0.0337,0.290024 0.0337,0.290024 0,0 -0.0941,0.04429 -0.20245,0.08683 l 6.32784,4.528677 c -0.0172,-0.213311 -0.0376,-0.382271 -0.0376,-0.382271 0,0 0.0905,-0.03248 0.15399,-0.05633 l -6.27552,-4.466974 z m -2.10751,3.423874 c 0.0178,0.182685 0.0556,0.303309 0.0556,0.303309 0,0 -0.0941,0.04429 -0.20246,0.08683 l 6.30602,4.515435 c -0.017,-0.206027 -0.0157,-0.368987 -0.0157,-0.368987 0,0 0.081,-0.02943 0.15399,-0.05632 z m -2.06381,3.450401 c 0.016,0.178177 0.0204,0.311917 0.0204,0.311917 0,0 -0.0846,0.02517 -0.18917,0.06493 l 6.32791,4.52872 c -0.0189,-0.210496 -0.0509,-0.360379 -0.0509,-0.360379 0,0 0.0885,-0.04815 0.16727,-0.07822 z m -2.08565,3.437137 c 0.016,0.178178 0.0204,0.311917 0.0204,0.311917 0,0 -0.0982,0.02975 -0.18917,0.06493 l 6.30602,4.515436 c -0.0167,-0.195507 -0.029,-0.347095 -0.029,-0.347095 0,0 0.0885,-0.04815 0.16728,-0.07822 z m -2.10752,3.423874 c 0.0182,0.192907 0.0423,0.325202 0.0423,0.325202 0,0 -0.0982,0.02975 -0.18917,0.06493 l 6.30603,4.515435 c -0.0167,-0.195506 -0.029,-0.347094 -0.029,-0.347094 0,0 0.0846,-0.02517 0.18917,-0.06493 z m -2.09895,3.45903 c 0.0163,0.185158 0.0423,0.325202 0.0423,0.325202 0,0 -0.0846,0.02517 -0.18917,0.06493 l 6.31931,4.493543 c -0.0182,-0.192908 -0.0423,-0.325202 -0.0423,-0.325202 0,0 0.0981,-0.0298 0.18917,-0.06493 z m -2.0638,3.450401 c 0.016,0.178177 0.0204,0.311917 0.0204,0.311917 0,0 -0.0982,0.02975 -0.18917,0.06493 l 6.29741,4.480258 c -0.016,-0.178177 -0.0204,-0.311917 -0.0204,-0.311917 0,0 0.0885,-0.04815 0.16727,-0.07822 z"
       style="color:#000000;font-style:normal;font-variant:normal;font-weight:normal;font-stretch:normal;font-size:medium;line-height:normal;font-family:Sans;-inkscape-font-specification:Sans;text-indent:0;text-align:start;text-decoration:none;text-decoration-line:none;letter-spacing:normal;word-spacing:normal;text-transform:none;writing-mode:lr-tb;direction:ltr;baseline-shift:baseline;text-anchor:start;display:inline;overflow:visible;visibility:visible;fill:#000000;fill-opacity:1;stroke:none;stroke-width:0.40972576;marker:none;enable-background:accumulate"
       inkscape:connector-curvature="0" />
    <path
       inkscape:connector-curvature="0"
       id="path4112"
       d="m 260.43441,31.825173 c -2.85346,-1.731486 -6.57029,-0.821943 -8.30178,2.031521 -0.69676,1.148243 -0.95505,2.436455 -0.8262,3.632263 0.12886,1.195811 0.66391,1.941677 0.9654,2.802368 0.49496,1.413016 0.13652,3.438339 -1.09594,6.64367 2.17298,-2.458948 3.73949,-3.8036 5.19771,-3.974983 1.10343,-0.129682 2.21153,0.0366 3.22545,-0.379177 1.15411,-0.473265 2.17013,-1.305635 2.86688,-2.453879 1.73149,-2.853463 0.82195,-6.570298 -2.03152,-8.301783 z m -1.64727,2.714681 c 1.32003,0.800996 1.73569,2.52019 0.925,3.856191 -0.32623,0.537626 -0.7997,0.9422 -1.33651,1.165938 -0.4716,0.19657 -0.98615,0.135677 -1.49859,0.198941 -0.67721,0.08361 -1.40133,0.705858 -2.41595,1.858847 0.57995,-1.498987 0.73357,-2.448614 0.50736,-3.106841 -0.13777,-0.400939 -0.3758,-0.753133 -0.43264,-1.310904 -0.0568,-0.557759 0.0775,-1.164366 0.40375,-1.701992 0.81069,-1.336002 2.52756,-1.761171 3.84758,-0.96018 z"
       style="fill:#b9bebd;fill-opacity:1;stroke:none;stroke-width:0.81945151" />
    <path
       id="path4114"
       style="fill:#ffffff;fill-opacity:1;stroke:none;stroke-width:0.81945151"
       d="m 209.07227,84.521484 c 4.15054,7.439608 4.94725,7.907672 -1.56055,19.046876 l -12.17578,20.84375 c 0.0591,0.13383 0.12138,0.26627 0.17968,0.40039 0.11063,0.26596 0.23031,0.52801 0.34766,0.79102 0.12624,0.28271 0.25529,0.56448 0.38477,0.8457 0.1227,0.25976 0.24722,0.51918 0.36914,0.7793 0.11109,0.23469 0.2207,0.46849 0.33593,0.70117 0.12345,0.25739 0.25424,0.51275 0.38282,0.76758 0.13513,0.26748 0.26643,0.53667 0.39648,0.80664 0.11335,0.24601 0.23394,0.48845 0.35156,0.73242 0.10678,0.22534 0.21327,0.45151 0.32227,0.67578 0.10009,0.20144 0.19671,0.40409 0.30078,0.60351 0.10454,0.20065 0.21078,0.40056 0.31836,0.59961 0.10487,0.20084 0.21216,0.39948 0.31836,0.59961 0.0995,0.18958 0.20039,0.37835 0.30273,0.56641 0.10212,0.18255 0.19925,0.36774 0.29688,0.55273 0.0961,0.18194 0.19229,0.36523 0.28516,0.54883 0.0905,0.17798 0.18101,0.3542 0.26953,0.53321 0.0964,0.18823 0.1912,0.37692 0.28515,0.5664 0.13127,0.26035 0.25271,0.52641 0.375,0.79102 0.11561,0.25678 0.23429,0.51263 0.34961,0.76953 0.1094,0.24029 0.21736,0.48015 0.32617,0.7207 0.11549,0.25685 0.23304,0.51395 0.35547,0.76758 0.14776,0.31079 0.3008,0.61819 0.45508,0.92578 0.14917,0.29857 0.30368,0.59432 0.46094,0.88867 0.0324,0.0603 0.0668,0.11958 0.0996,0.17969 l 18.03125,-28.62891 c 6.87539,-10.91614 7.65831,-10.42585 16.17383,-10.17968 z" />
    <path
       id="path4116"
       d="m 208.29339,78.904045 c -0.55462,-0.335589 -1.14556,-0.666278 -1.75608,-1.005686 -11.80568,-6.563214 -12.93916,-3.618589 -15.26119,-1.802057 8.08709,0.687064 12.01477,4.924237 18.14759,8.645645 l 9.7641,5.924867 c 0.6813,0.272319 0.67466,-2.59776 -1.86415,-4.875372 -2.55509,-2.292228 -5.14639,-4.540751 -9.03027,-6.887397 z"
       style="fill:#393a2e;fill-opacity:1;stroke:none;stroke-width:0.81945151"
       inkscape:connector-curvature="0" />
    <path
       id="path4118"
       d="m 242.75234,99.813778 c -3.87493,-2.361375 -7.06593,-3.621592 -10.27901,-4.829493 -3.19257,-1.200199 -5.76329,0.105932 -5.20715,0.584492 l 9.78599,5.938153 c 6.13282,3.72141 11.70488,5.24868 16.04864,12.10467 0.53904,-2.89845 2.62753,-5.26357 -8.64553,-12.70457 -0.58297,-0.3848 -1.14937,-0.75591 -1.70294,-1.093252 z"
       style="fill:#6f7161;fill-opacity:1;stroke:none;stroke-width:0.81945151"
       inkscape:connector-curvature="0" />
    <path
       id="path4120"
       style="color:#000000;display:inline;overflow:visible;visibility:visible;fill:#d0d0cd;fill-opacity:1;stroke:none;stroke-width:0.24583545;marker:none;enable-background:accumulate"
       d="M 221.9375,92.335938 198.57422,131.25 c 0.0439,0.0887 0.087,0.1778 0.13281,0.26562 0.10454,0.20065 0.21078,0.40056 0.31836,0.59961 0.10487,0.20084 0.21216,0.39948 0.31836,0.59961 0.0995,0.18958 0.20039,0.37835 0.30273,0.56641 0.10212,0.18255 0.19925,0.36774 0.29688,0.55273 0.0961,0.18194 0.19229,0.36523 0.28516,0.54883 0.0905,0.17798 0.18101,0.3542 0.26953,0.53321 0.0964,0.18823 0.1912,0.37692 0.28515,0.5664 0.13127,0.26035 0.25271,0.52641 0.375,0.79102 0.11561,0.25678 0.23429,0.51263 0.34961,0.76953 0.1094,0.24029 0.21736,0.48015 0.32617,0.7207 0.11549,0.25685 0.23304,0.51395 0.35547,0.76758 0.14776,0.31079 0.3008,0.61819 0.45508,0.92578 0.14917,0.29857 0.30368,0.59432 0.46094,0.88867 0.0329,0.0613 0.0662,0.12249 0.0996,0.1836 l 18.03515,-28.63868 c 6.87539,-10.91611 7.65831,-10.41023 16.17383,-10.16406 z" />
    <path
       id="path4122"
       style="fill:#ffffff;fill-opacity:1;stroke:none;stroke-width:0.81945151"
       d="m 214.5625,109.17383 -14.78125,24.35742 c 0.054,0.10091 0.10867,0.20148 0.16211,0.30273 0.0961,0.18194 0.19229,0.36523 0.28516,0.54883 0.0905,0.17798 0.18101,0.3542 0.26953,0.53321 0.0964,0.18823 0.1912,0.37692 0.28515,0.5664 0.13127,0.26035 0.25271,0.52641 0.375,0.79102 0.017,0.0377 0.0337,0.0756 0.0508,0.11328 l 10.49219,-16.9668 c 5.45628,-8.82312 3.56486,-8.86286 2.86133,-10.24609 z" />
    <path
       id="path4124"
       style="fill:#d0d0cd;fill-opacity:1;stroke:none;stroke-width:0.81945151"
       d="m 221.57422,92.599609 -23.11719,38.414061 c 0.0825,0.16775 0.16346,0.33612 0.25,0.50195 0.10454,0.20065 0.21078,0.40056 0.31836,0.59961 0.10487,0.20084 0.21216,0.39948 0.31836,0.59961 0.0686,0.13078 0.13901,0.26059 0.20898,0.39063 l 20.24415,-33.554689 c -0.85222,-1.303179 1.7491,-5.847718 1.77734,-6.951172 z" />
  </g>
  <g id="mark"/>
</svg>
